<defs>
<font horiz-adv-x="500" ><font-face
    font-family="desyrel"
    units-per-em="1000"
    panose-1="2 0 6 3 5 0 0 2 0 3"
    ascent="876"
    descent="-380"
    alphabetic="0" />
<missing-glyph />
<glyph unicode=";" glyph-name="dotaccent" horiz-adv-x="203" d="M134 680Q118 669 98 669T64 686T50 724Q50 747 70 763Q85 774 103 773T134 763Q144 756 148 745T153 721Q153 709 149 698T134 680Z" />
<glyph unicode=";" glyph-name="ring" horiz-adv-x="298" d="M187 668Q204 683 204 708Q204 734 187 749Q172 766 146 766Q121 766 106 749Q89 734 89 708Q89 683 106 668Q121 651 146 651Q172 651 187 668ZM213 642Q185 616 146 616Q108 616 80 642Q54 670
54 708Q54 747 80 775Q108 801 146 801Q185 801 213 775Q239 747 239 708Q239 670 213 642Z" />
<glyph unicode="&#xa;" glyph-name="hungarumlaut" horiz-adv-x="458" d="M427 655Q434 644 432 634T418 616Q403 607 383 596T340 573T297 551T261 533Q247 527 237 531T222 546Q217 556 219 566T235 585Q251 593 271 603T313 624T354 645T390 664Q401 672 411
669T427 655ZM236 673Q243 662 241 652T227 634Q212 625 192 614T149 591T106 569T70 551Q56 545 46 549T31 564Q26 574 28 584T44 603Q60 611 80 621T122 642T163 663T199 682Q210 690 220 687T236 673Z" />
<glyph unicode=";" glyph-name="ogonek" horiz-adv-x="204" d="M61 -110Q57 -102 55 -91T53 -69T62 -49T86 -34Q94 -32 96 -30T98 -21Q98 -17 96 -10T92 5Q89 14 95 21T111 31T131 28T145 6Q151 -17 151 -36Q151 -66 122 -74Q111 -77 110 -82T114 -93Q119
-99 129 -104T154 -113Q166 -116 171 -125T175 -143T166 -159T144 -164Q119 -161 97 -147T61 -110Z" />
<glyph unicode=";" glyph-name="caron" horiz-adv-x="346" d="M76 700Q67 711 68 721T77 739T94 747T114 740Q126 729 139 716T163 693Q166 689 169 689T175 692Q192 703 214 716T256 743Q267 750 278 747T295 733Q301 725 300 715T287 696Q260 680 233 663T184
633Q160 617 140 634Q125 648 107 667T76 700Z" />
<glyph unicode="&#xd;" glyph-name="dotlessi" horiz-adv-x="369" d="M488 66Q489 54 481 42T452 28Q438 26 414 19T362 1T306 -18T256 -33Q193 -48 158 -33T106 41Q101 60 101 85T102 130Q104 156 109 181T122 226Q116 228 116 234Q116 240 118 246Q122 255 130
268T146 290Q156 298 168 299T192 296Q206 291 213 281T214 257Q203 235 192 199T178 130Q177 110 178 94T182 67Q187 47 199 41T239 39Q256 42 283 52T339 73T397 94T446 103Q466 104 476 92T488 66Z" />
<glyph unicode=";" glyph-name="fraction" horiz-adv-x="520" d="M526 616Q523 595 502 557T446 471T369 368T282 256T194 144T115 42T56 -41T27 -97Q22 -114 14 -116T-7 -115Q-32 -110 -29 -81Q-27 -58 0 -14T70 87T166 210T272 343T374 474T456 591Q456
608 458 622T468 648Q478 665 487 669T510 671Q521 669 525 654T526 616Z" />
<glyph unicode=";" glyph-name="fi" horiz-adv-x="718" d="M699 117Q700 105 692 93T663 79Q649 77 625 70T573 52T517 33T467 18Q404 3 369 18T317 92Q312 111 312 136T313 181Q315 206 319 229T331 272Q297 267 264 264T201 257Q195 194 195 129T197 5T207
-100T223 -170Q227 -181 234 -188T248 -205Q263 -232 243 -250Q231 -261 218 -261T192 -256Q161 -239 148 -199Q135 -154 128 -96T119 23T118 143T123 251Q108 249 95 248T66 246Q48 245 39 255T29 280Q28 293 37 305T65 319Q79 321 96 322T130 325Q138 385 154
442T193 548Q220 600 253 635Q263 645 278 657T313 680T354 698T399 706Q421 706 438 699T468 679T488 652T496 622Q499 605 496 589Q492 575 482 567T459 559Q446 557 435 564T422 585Q420 590 420 594Q420 598 418 605Q415 616 407 622T389 628Q372 627 351 614T310
583Q298 572 285 553T263 516Q244 477 232 431T211 334Q248 338 293 343T384 353Q398 355 407 350T421 335Q432 322 425 308Q414 286 403 250T389 181Q388 161 389 145T393 118Q398 98 410 92T450 90Q467 93 494 103T550 124T608 145T657 154Q677 155 687 143T699
117Z" />
<glyph unicode=";" glyph-name="fl" horiz-adv-x="858" d="M594 465Q591 520 574 524Q558 529 530 486Q517 466 504 437T480 372T461 298T453 223Q451 172 467 130Q493 161 519 196T562 272Q568 287 574 310T585 361T592 415T594 465ZM838 66Q843 53 838
39T812 16Q786 7 746 -7T660 -31T569 -43T486 -30Q423 -4 400 61T378 223Q378 250 381 279Q336 272 289 267T201 257Q195 194 195 129T197 5T207 -100T223 -170Q227 -181 234 -188T248 -205Q263 -232 243 -250Q231 -261 218 -261T192 -256Q161 -239 148 -199Q135
-154 128 -96T119 23T118 143T123 251Q108 249 95 248T66 246Q48 245 39 255T29 280Q28 293 37 305T65 319Q79 321 96 322T130 325Q138 385 154 442T193 548Q220 600 253 635Q263 645 278 657T313 680T354 698T399 706Q421 706 438 699T468 679T488 652T496 622Q499
605 496 589Q492 575 482 567T459 559Q446 557 435 564T422 585Q420 590 420 594Q420 598 418 605Q415 616 407 622T389 628Q372 627 351 614T310 583Q298 572 285 553T263 516Q244 477 232 431T211 334Q250 338 299 343T395 353Q409 408 430 456T474 537Q506 582
537 604T597 621Q627 617 646 583T670 480Q672 453 670 422T663 358T649 296T629 240Q617 212 602 187T569 138T535 95T501 58Q507 53 519 46T543 37Q568 33 598 36T660 48T725 66T788 88Q805 94 819 87T838 66Z" />
<glyph unicode=";" glyph-name="Zcaron" horiz-adv-x="571" d="M193 683Q184 694 185 704T194 722T211 730T231 723Q243 712 256 699T280 676Q283 672 286 672T292 675Q309 686 331 699T373 726Q384 733 395 730T412 716Q418 708 417 698T404 679Q377 663
350 646T301 616Q277 600 257 617Q242 631 224 650T193 683ZM567 489Q576 466 566 438T528 384Q493 351 446 310T350 224T254 138T173 60Q161 48 154 38T149 20Q154 9 183 6Q223 4 265 7T347 18T419 36T474 58Q492 68 505 62T526 44Q534 27 530 13T507 -9Q474 -24
431 -36T340 -57T243 -69T149 -67Q66 -58 52 -14Q45 7 56 34T97 90Q138 131 184 174T276 259T367 341T452 416Q460 424 464 432T464 446Q459 455 439 455Q357 451 288 442T144 416Q129 411 117 404T94 401T76 417Q69 428 70 441T85 469Q99 482 127 490Q206 509
292 519T477 531Q515 533 537 521T567 489Z" />
<glyph unicode=";" glyph-name="zcaron" horiz-adv-x="451" d="M108 494Q99 505 100 515T109 533T126 541T146 534Q158 523 171 510T195 487Q198 483 201 483T207 486Q224 497 246 510T288 537Q299 544 310 541T327 527Q333 519 332 509T319 490Q292 474
265 457T216 427Q192 411 172 428Q157 442 139 461T108 494ZM490 29Q492 17 487 4T465 -15Q440 -24 396 -32T303 -46T207 -51T127 -46Q90 -40 79 -9Q74 4 78 21T96 56Q114 79 135 101T176 142T215 177T246 205Q266 223 261 235Q259 245 236 245Q205 245 171 246T118
250Q99 252 89 263T78 289Q78 308 96 319Q108 327 122 327Q137 327 148 319Q160 318 176 318T208 317T240 316T267 315Q301 315 323 304T354 271Q363 251 354 225T315 170Q303 159 288 145T255 115T220 82T189 47Q182 39 184 33T199 25Q219 23 250 24T317 29T386
39T446 53Q463 58 475 50T490 29Z" />
<glyph unicode=" " glyph-name="space" horiz-adv-x="322" />
<glyph unicode="!" glyph-name="exclam" horiz-adv-x="337" d="M250 51Q259 43 263 32T268 8Q268 -4 263 -14T249 -32Q233 -45 213 -44T179 -26T165 12T185 51Q199 62 218 62Q237 62 250 51ZM305 591Q305 581 303 576T298 566Q296 532 294 489T288 399T281 304T272
214Q270 196 260 188T235 181T211 191T202 217Q207 268 211 327T219 442T226 546T232 624Q233 642 244 651T269 660Q280 660 289 652T302 628Q304 620 304 609T305 591Z" />
<glyph unicode="&quot;" glyph-name="quotedbl" horiz-adv-x="246" d="M229 617Q229 608 229 590Q229 572 229 551Q229 531 229 512T228 479Q228 465 219 458T198 450Q187 450 178 457T169 479Q169 503 169 533T170 579Q165 582 164 587T163 599T166 611T171 623Q182
645 204 645Q213 644 220 638T229 617ZM99 619Q99 610 99 592Q99 574 99 553Q99 533 99 514T98 481Q98 467 89 460T68 452Q57 452 48 459T39 481Q39 505 39 535T40 581Q35 584 34 589T33 601T36 613T41 625Q52 647 74 647Q83 646 90 640T99 619Z" />
<glyph unicode="#" glyph-name="numbersign" horiz-adv-x="522" d="M345 277Q323 277 304 277T265 276Q259 246 253 214T242 150H321Q327 179 333 213T345 277ZM528 300Q528 286 519 277T495 267Q488 267 482 269T466 274Q455 276 442 277T415 278Q409 246 402
214T390 152Q411 152 429 149T458 146Q475 146 483 135T492 110Q492 98 484 88T460 77Q447 77 431 83Q420 84 407 85T376 86Q371 63 367 39T363 -7Q374 -18 373 -33T363 -60Q350 -77 324 -76Q307 -75 302 -63T295 -41Q293 -18 298 16T308 86Q289 86 268 86Q247
86 226 85Q221 62 217 38T213 -7Q224 -19 223 -34T212 -61Q198 -80 173 -77Q155 -75 150 -63T144 -41Q142 -21 147 13T158 81Q142 81 129 77Q121 66 107 63T80 65Q72 69 62 77T51 100Q51 114 59 123T78 135Q92 140 116 143T171 147Q177 177 183 210T194 272Q187
272 181 272T169 269Q161 255 145 253T116 256Q105 261 96 269T87 292Q87 306 95 313T115 324Q135 332 156 335T207 338Q213 367 218 402T228 462Q230 479 239 484T263 490Q277 490 286 480T294 456Q289 424 285 396T275 341H360Q365 368 369 400T378 461Q380 478
390 484T412 490Q424 490 434 481T444 458Q444 447 443 433T439 402T433 371T427 342Q450 342 465 341T492 337Q512 334 520 323T528 300Z" />
<glyph unicode="$" glyph-name="dollar" horiz-adv-x="460" d="M338 149Q338 161 335 165T322 177Q308 188 289 195Q285 160 280 122T273 52Q292 66 307 83T330 117T338 149ZM248 372Q232 366 210 359T176 343Q162 334 160 324Q160 318 165 313T179 304Q183 302
191 299T208 292T225 285T238 279Q239 286 240 298T243 323T245 350T248 372ZM497 422Q494 414 485 408T464 401Q453 401 445 405T431 414Q411 414 376 408T309 391Q308 377 307 360T304 324T300 289T295 259Q309 253 325 246T351 231Q376 215 387 199T399 157Q399
96 340 37Q326 22 308 6T270 -22Q268 -36 268 -50T271 -78Q276 -83 278 -87T286 -96Q297 -110 290 -126Q285 -134 277 -138T255 -141Q221 -138 213 -97Q211 -89 211 -77Q211 -65 211 -54Q198 -61 184 -64T157 -70Q146 -71 131 -69T100 -60Q84 -53 82 -41T85 -17Q89
-8 100 -3T124 -2Q134 -7 141 -9T159 -10Q168 -8 184 -2T212 12Q212 31 214 56T219 108T225 163T232 218Q224 221 212 225T188 235T165 245T147 253Q118 264 104 281T89 319Q89 337 101 355T140 390Q150 396 164 402T193 414T224 425T253 435Q257 463 258 491T261
539Q262 553 271 561T291 569Q302 569 311 562T320 539Q320 524 319 499T315 454Q347 462 380 468T439 474Q455 474 467 470T487 459Q496 452 498 442T497 422Z" />
<glyph unicode="%" glyph-name="percent" horiz-adv-x="706" d="M628 33Q626 48 623 64T613 95T594 124T560 147Q550 139 537 126T512 96T491 58T478 10Q474 -33 527 -29Q541 -27 562 -25T599 -17Q615 -12 623 -1T628 33ZM278 279Q276 294 273 310T263 341T244
370T210 393Q200 385 187 372T162 342T141 304T128 256Q124 213 177 217Q191 219 212 221T249 229Q265 234 273 245T278 279ZM685 47Q691 -6 673 -32T620 -70Q600 -77 575 -80T530 -86Q474 -91 444 -66T421 18Q426 53 441 84T478 143T522 191T567 226Q579 234 591
233T610 227Q625 215 615 199Q613 196 611 194T606 187Q647 161 664 124T685 47ZM565 421Q560 401 538 361T484 270T419 166T354 64T304 -20T281 -69Q278 -85 269 -90T248 -93Q239 -91 233 -84T225 -64Q224 -49 238 -18T277 53T331 140T392 233T449 322T494 397Q494
414 498 426T509 449Q517 460 528 464T549 466Q559 462 564 451T565 421ZM335 293Q341 240 323 214T270 176Q250 169 225 166T180 160Q124 155 94 180T71 264Q76 299 91 330T128 389T172 437T217 472Q229 480 241 479T260 473Q275 461 265 445Q263 442 261 440T256
433Q297 407 314 370T335 293Z" />
<glyph unicode="&amp;" glyph-name="ampersand" horiz-adv-x="446" d="M260 -88Q260 -105 256 -115T249 -134Q247 -152 237 -160T213 -168Q200 -168 190 -160T180 -134Q180 -117 185 -107T191 -88Q191 -69 204 -61T231 -54Q242 -56 251 -64T260 -88ZM410 27Q418
15 416 1T400 -22Q381 -33 358 -39T308 -48T254 -51T198 -51Q145 -50 111 -37T59 -3T39 47T49 106Q61 135 84 156T132 189Q141 194 150 197T169 204Q157 212 146 222T129 245Q121 265 127 287T149 328T192 359T250 372Q282 372 309 367T355 350Q372 342 373 328T367
302Q352 283 326 289Q311 294 295 298T250 303Q224 303 212 291T203 268Q207 254 225 247T261 230Q272 225 277 216T282 195Q283 184 278 175T260 161Q244 155 220 148T168 130Q151 124 137 111T117 81Q109 55 125 39T198 20Q219 18 242 18Q266 18 289 19T331 25T362
37Q378 48 390 43T410 27ZM320 479Q318 459 314 444T307 414Q306 397 295 389T271 380Q257 380 248 388T237 414Q236 436 242 451T249 479Q250 498 261 507T287 514Q301 513 310 505T320 479Z" />
<glyph unicode="&apos;" glyph-name="quotesingle" horiz-adv-x="152" d="M102 619Q102 610 102 592Q102 574 102 553Q102 533 102 514T101 481Q101 467 92 460T71 452Q60 452 51 459T42 481Q42 505 42 535T43 581Q38 584 37 589T36 601T39 613T44 625Q55 647
77 647Q86 646 93 640T102 619Z" />
<glyph unicode="(" glyph-name="parenleft" horiz-adv-x="451" d="M500 682Q508 675 509 663T499 641Q435 581 382 517T290 388T230 259T208 135Q208 49 254 -5T399 -85Q415 -89 421 -98T425 -122Q423 -133 413 -140T385 -144Q263 -119 205 -45T147 134Q147 209
173 283T243 427T342 562T455 682Q467 695 479 694T500 682Z" />
<glyph unicode=")" glyph-name="parenright" horiz-adv-x="451" d="M399 414Q399 339 372 265T302 121T203 -14T91 -134Q79 -147 67 -146T46 -134Q38 -127 37 -115T47 -93Q111 -33 164 31T256 160T316 289T338 413Q338 499 292 553T147 633Q131 637 125 646T121
670Q123 681 133 688T161 692Q222 680 267 654T341 592T384 511T399 414Z" />
<glyph unicode="*" glyph-name="asterisk" horiz-adv-x="322" d="M384 545Q389 537 387 527T374 505Q367 499 358 495T338 493Q331 489 320 485T298 476T276 469T260 462Q267 458 281 451T310 434T338 416T356 401Q364 390 363 381T356 365Q348 358 341 357T326
356Q314 358 304 366T291 386Q285 390 278 396T263 410T248 422T237 431Q237 425 237 415T238 393T240 372T241 355Q246 347 247 338T247 322Q244 307 235 300T214 293Q201 294 192 302T182 328Q182 338 184 352T188 380T193 407T196 429Q192 427 185 422T170 410T152
396T137 385Q136 374 127 366T104 355Q78 352 67 372Q62 381 64 392T79 413Q85 417 98 423T126 437T155 451T180 464Q176 466 169 469T152 475T135 483T120 490Q108 487 96 490T77 505Q71 514 71 523Q71 533 76 541Q82 551 93 554T118 551Q128 547 139 540T162
524T183 509T201 497Q202 507 202 523Q202 540 202 557Q202 574 202 589T205 613Q207 627 216 632T235 637Q247 637 255 630T263 609Q261 599 258 584T252 552T247 520T243 496Q251 501 264 509T292 527T320 543T343 555Q357 561 368 557T384 545Z" />
<glyph unicode="+" glyph-name="plus" horiz-adv-x="397" d="M205 150Q195 149 186 156T175 178Q173 198 173 229Q173 261 174 293Q149 294 129 294Q110 294 102 292Q97 292 91 288T80 280Q72 275 63 276T47 283Q33 293 36 313Q39 327 49 337T74 350T115 353T175
352Q175 367 175 378Q175 390 174 396Q174 401 170 407T162 418Q157 426 158 435T165 451Q175 465 195 462Q209 459 219 449T232 424Q234 413 235 393T235 350Q261 349 282 349T318 350T340 343T348 323Q349 313 342 304T320 293Q304 291 281 291Q259 291 233 291Q231
258 231 228T232 180Q234 166 225 158T205 150Z" />
<glyph unicode="," glyph-name="comma" horiz-adv-x="177" d="M142 22Q143 5 143 -18Q143 -41 141 -67T131 -122T109 -178Q102 -191 91 -193T70 -191Q59 -186 54 -175T56 -152Q65 -136 70 -116T78 -76T82 -41T83 -17Q78 -16 77 -11T76 1T80 14T85 26Q90 37 99
42T116 46Q126 46 134 40T142 22Z" />
<glyph unicode="-" glyph-name="hyphen" horiz-adv-x="502" d="M448 191Q449 181 442 172T420 161Q399 159 366 159Q333 159 300 159T240 160T202 159Q197 159 191 155T180 147Q172 142 163 143T147 150Q133 160 136 180Q139 194 149 204T174 217Q190 221 223
221Q256 221 293 220T364 217T418 218Q432 220 440 211T448 191Z" />
<glyph unicode="." glyph-name="period" horiz-adv-x="173" d="M135 -32Q119 -43 99 -43T65 -26T51 12Q51 35 71 51Q86 62 104 61T135 51Q145 44 149 33T154 9Q154 -3 150 -14T135 -32Z" />
<glyph unicode="/" glyph-name="slash" horiz-adv-x="551" d="M637 616Q634 595 613 557T557 471T480 368T393 256T305 144T226 42T167 -41T138 -97Q133 -114 125 -116T104 -115Q79 -110 82 -81Q84 -58 111 -14T181 87T277 210T383 343T485 474T567 591Q567 608
569 622T579 648Q589 665 598 669T621 671Q632 669 636 654T637 616Z" />
<glyph unicode="0" glyph-name="zero" horiz-adv-x="660" d="M549 107Q562 132 541 169Q515 212 481 245T409 296Q355 320 275 323Q258 306 239 282T203 228T175 167T163 106T169 56T189 24Q208 6 239 5T309 14Q328 19 352 25T400 37T447 50T487 63Q510 71 526
82T549 107ZM621 73Q594 20 515 -6Q494 -13 470 -20T420 -33T371 -46T328 -58Q268 -77 216 -70T130 -31Q106 -8 94 27T87 111Q91 152 105 190T138 263T178 324T219 371Q219 381 225 387T241 393Q252 404 267 417T291 438Q308 449 320 447T342 437Q350 430 353 420T351
404Q349 402 345 398T336 391Q366 386 395 379T448 360Q478 346 502 328T545 288T578 247T603 209Q626 173 630 138T621 73Z" />
<glyph unicode="1" glyph-name="one" horiz-adv-x="376" d="M320 36Q320 22 311 11T284 -2Q274 -3 264 -3T242 -3Q235 -16 220 -16T197 -6Q195 -8 188 -8Q182 -8 174 -10Q168 -16 160 -18T145 -19Q114 -14 106 12Q101 26 106 39T128 59Q139 63 154 65T181 67Q181
99 183 142T190 228T198 311T206 377Q207 385 203 387T194 387Q186 382 178 378T161 370Q151 368 142 373T128 387Q121 399 123 413T142 435Q148 438 158 444T179 457T202 471T220 482Q232 489 245 489T268 482T284 466T289 443Q285 407 280 357T269 255T260 154T254
72Q271 73 283 71T305 63Q320 55 320 36Z" />
<glyph unicode="2" glyph-name="two" horiz-adv-x="602" d="M598 23Q596 12 588 2T566 -15Q553 -20 539 -16T516 -6Q475 -4 427 -5T327 -11T226 -22T132 -34Q114 -36 101 -28T81 -7Q73 7 76 23T97 52Q131 76 167 103T236 159T297 214T345 262Q365 285 368 305T352
340Q344 348 328 357T295 371Q288 372 274 374T242 377T208 378T177 379Q158 380 149 391T139 417Q138 430 146 441T172 453Q193 455 215 455T259 452T297 447T323 441Q349 433 373 418T408 395Q453 360 449 313T402 216Q370 178 320 135T217 50Q260 56 306 60T396
66T481 69T554 67Q577 65 588 52T598 23Z" />
<glyph unicode="3" glyph-name="three" horiz-adv-x="522" d="M473 80Q473 50 461 19T425 -43Q398 -77 361 -107T281 -163T193 -209T105 -242Q87 -247 73 -240T54 -219Q47 -206 52 -191T78 -169Q112 -157 152 -141T231 -102T304 -54T361 3Q377 26 385 44T392 80Q392
127 328 147Q316 151 299 151T263 151T227 149T196 146Q178 144 165 152T147 171Q141 183 145 196T168 221Q185 232 207 247T253 280T297 315T333 346Q353 367 349 382T303 399Q281 400 259 398T216 392T177 383T146 372Q127 365 114 369T92 385Q84 398 85 414T104
438Q122 446 146 453T198 465T255 472T313 474Q362 472 391 458T433 421Q447 397 438 367T401 308Q383 289 353 265T290 219Q310 219 332 218T377 208Q425 190 448 156T473 80Z" />
<glyph unicode="4" glyph-name="four" horiz-adv-x="647" d="M402 344Q347 309 293 272T182 192Q179 190 180 188T184 186Q238 188 288 189T392 192Q397 234 398 270T402 344ZM654 163Q654 149 646 138T619 125Q585 123 544 122T462 119Q458 71 456 16T453 -94Q467
-108 464 -123T453 -150Q435 -174 415 -174Q400 -174 390 -162T378 -124Q377 -95 377 -71T379 -19T382 40T387 117Q312 115 239 112T95 109Q78 109 67 117T51 137Q46 150 47 163T60 188Q73 202 98 222T155 266T222 314T291 362T354 403T404 434Q409 450 422 457T450
462Q463 460 472 450T482 423Q480 376 477 314T470 194Q505 196 544 197T616 200Q635 201 644 190T654 163Z" />
<glyph unicode="5" glyph-name="five" horiz-adv-x="529" d="M464 217Q481 187 475 148T445 61Q425 19 391 -32T314 -137T219 -243T114 -340Q100 -351 85 -349T61 -336Q50 -326 50 -311Q50 -296 65 -283Q115 -241 162 -192T250 -93T323 6T375 96Q399 146 386 174Q372
203 320 213Q297 217 270 215T217 207T175 192T155 174Q151 161 140 155T117 150Q102 151 91 160T80 188Q79 217 83 256T89 333Q89 352 101 361T128 370Q142 370 153 361T164 333Q164 311 162 295T160 264Q176 272 197 278T241 287T288 291Q312 291 334 287Q388
278 419 261T464 217ZM534 434Q534 420 525 409T497 397Q467 397 421 397Q375 397 326 398T230 400T150 404Q132 405 123 416T114 440Q113 454 122 466T151 477Q186 476 232 475T327 473T420 472T497 471Q516 471 525 460T534 434Z" />
<glyph unicode="6" glyph-name="six" horiz-adv-x="722" d="M611 131Q631 154 630 173T609 210Q599 219 584 223T553 228T519 222T487 205Q458 182 428 137T364 11Q388 18 422 30T493 57T561 91T611 131ZM665 77Q629 43 581 17T485 -28T393 -59T326 -78Q315 -96
296 -96T268 -83Q223 -88 186 -77T123 -42Q89 -10 82 46T102 181Q119 227 142 280T191 385T245 484T297 565Q310 582 326 582T355 575Q366 567 371 552T368 519Q363 508 355 502T336 490Q317 459 296 422T254 344T212 257T176 164Q156 107 159 70T182 13Q212 -15
276 -6Q311 91 353 161T443 264Q497 302 552 303T653 272Q676 257 690 234T708 184T701 130T665 77Z" />
<glyph unicode="7" glyph-name="seven" horiz-adv-x="506" d="M523 434Q534 411 509 381Q481 347 450 304T388 213T327 115T273 16T228 -78T199 -160Q204 -174 204 -188T197 -211Q188 -225 173 -230T144 -231Q128 -226 119 -210T117 -166Q136 -97 170 -24T243
120T325 254T405 367Q412 377 410 383T391 390Q359 391 331 391T271 392Q241 392 206 391T127 386Q116 378 105 375T82 373Q65 372 51 382T30 407Q24 422 32 437T70 457Q104 461 154 463T260 466Q316 466 371 465T468 461Q492 460 505 453T523 434Z" />
<glyph unicode="8" glyph-name="eight" horiz-adv-x="691" d="M573 44Q576 71 562 95T519 137T451 163T364 167Q325 163 293 157T236 137T191 100T157 41Q150 23 160 6T189 -21Q221 -37 270 -43T365 -46Q401 -43 437 -35T503 -16T552 11T573 44ZM507 314Q509 333
498 351T468 384T425 407T374 416Q350 416 327 406T284 379T250 344T232 308Q228 293 229 280T244 258T285 245T361 244Q425 249 464 264T507 314ZM649 29Q640 -12 611 -38T541 -81T455 -107T371 -120Q347 -123 319 -123T261 -118T204 -106T152 -86Q132 -76 115
-62T86 -30T73 10T80 60Q88 82 101 103T132 143T168 176T207 199Q162 214 151 248T160 332Q169 356 189 383T236 435T299 474T374 490Q411 490 450 477T521 439T570 380T585 304Q582 273 565 251T521 217Q554 203 580 183T624 138T648 85T649 29Z" />
<glyph unicode="9" glyph-name="nine" horiz-adv-x="622" d="M493 255Q498 290 494 319T478 366Q461 391 437 406T374 421Q331 421 277 403T175 348Q155 332 141 309T126 272Q126 258 135 246T170 225Q203 214 244 211T329 212T415 227T493 255ZM577 238Q575 229
571 220T556 206Q543 151 518 93T460 -23T391 -134T317 -234Q304 -247 289 -247Q275 -247 262 -236Q254 -229 252 -214T259 -187Q289 -150 319 -106T378 -14T429 80T467 166Q387 139 303 136T143 154Q43 184 44 267Q45 305 69 341T128 405Q183 449 250 472T378
495Q435 495 476 470T542 407Q559 379 566 341T568 263Q575 258 576 251T577 238Z" />
<glyph unicode=":" glyph-name="colon" horiz-adv-x="188" d="M157 -32Q140 -43 121 -42T87 -26Q72 -10 73 13T94 51Q107 62 125 62Q143 62 157 51Q167 43 172 32T178 9Q178 -3 173 -14T157 -32ZM163 246Q173 238 178 227T183 203Q183 191 178 180T162 162Q145
151 126 152T92 168Q78 184 78 208T99 246Q113 256 131 256Q150 256 163 246Z" />
<glyph unicode=";" glyph-name="semicolon" horiz-adv-x="276" d="M247 22Q248 5 248 -18Q248 -41 246 -67T236 -122T214 -178Q207 -191 196 -193T175 -191Q164 -186 159 -175T161 -152Q170 -136 175 -116T183 -76T187 -41T188 -17Q183 -16 182 -11T181 1T185
14T190 26Q195 37 204 42T221 46Q231 46 239 40T247 22ZM242 246Q262 229 262 203T241 162Q224 151 205 152T171 168Q157 184 158 207T179 246Q193 256 210 256Q228 256 242 246Z" />
<glyph unicode="&lt;" glyph-name="less" horiz-adv-x="547" d="M441 512Q448 512 462 510T486 496Q508 468 470 439Q446 421 408 396T326 341T234 277T141 207Q123 193 142 182Q223 134 311 92T505 2Q518 -3 523 -13T528 -31Q528 -39 528 -40Q525 -64 508 -70T474
-69Q432 -50 377 -25T264 29T151 86T51 144Q39 151 33 162T27 186Q27 199 32 210T49 229Q98 270 140 300T221 357T300 410T387 472Q396 490 410 501T441 512Z" />
<glyph unicode="=" glyph-name="equal" horiz-adv-x="445" d="M388 334Q389 324 382 315T360 304Q339 302 306 302Q273 302 240 303T180 304T142 303Q137 303 131 299T120 291Q112 286 103 287T87 294Q73 304 76 324Q79 338 89 348T114 361Q130 365 163 365T233
363T304 360T358 361Q372 363 380 354T388 334ZM391 190Q392 180 385 171T363 160Q342 158 309 158Q276 158 243 159T183 160T145 159Q140 159 134 155T123 147Q115 142 106 143T90 150Q76 160 79 180Q82 194 92 204T117 217Q133 221 166 221T236 219T307 216T361
217Q375 219 383 210T391 190Z" />
<glyph unicode="&gt;" glyph-name="greater" horiz-adv-x="549" d="M111 513Q128 513 142 502T165 473Q211 438 251 412T331 358T411 301T503 230Q513 223 519 212T525 187Q525 175 519 164T501 145Q457 117 402 88T288 30T175 -23T78 -68Q61 -75 44 -69T24 -39Q24
-38 24 -30Q24 -23 29 -13T47 3Q153 51 241 93T410 183Q429 194 411 208Q366 244 319 278T227 342T144 397T82 440Q44 469 66 497Q76 509 90 511T111 513Z" />
<glyph unicode="?" glyph-name="question" horiz-adv-x="417" d="M267 55Q277 47 282 36T287 13T281 -10T266 -28Q250 -39 230 -39T196 -22T182 16T203 55Q217 66 235 65T267 55ZM459 479Q459 432 412 391Q341 328 290 278T225 202Q226 181 222 165Q220 154 212
148T195 140T176 141T160 153Q149 169 152 194T170 242Q183 263 205 286T253 335T307 386T362 440Q382 458 382 475Q380 497 346 511Q320 522 283 535T215 559Q204 557 189 561T159 577Q145 590 144 604T150 629Q158 639 171 643T204 641Q251 622 295 607T373 580Q418
565 439 538T459 479Z" />
<glyph unicode="@" glyph-name="at" horiz-adv-x="903" d="M322 -190Q322 -191 322 -191Q323 -191 323 -192Q322 -192 322 -192T320 -193Q230 -216 163 -217T56 -183Q32 -162 19 -129T6 -52T16 43T53 152Q81 214 119 279T202 406T296 521T393 612Q485 683 563
683Q622 686 670 655T752 570Q767 546 781 518T808 460T832 401T850 346Q862 302 865 258T860 174T830 96T771 29Q760 20 741 8T676 -27Q632 -31 609 -22T568 13Q561 22 556 40T550 72Q549 80 543 81T528 77Q517 70 502 58T469 30T433 -1T399 -30Q361 -59 328 -60T274
-43Q248 -20 248 26Q249 48 255 69T271 111Q286 141 308 170T354 224T404 270T450 305Q468 317 491 330T540 350T596 353T654 325Q667 314 668 301T663 277Q655 263 638 259T604 264Q581 282 554 278T489 248Q471 236 449 217T405 174T366 127T336 79Q330 67 328
50T334 27Q345 18 366 36Q381 49 403 68T450 106T497 144T539 173Q554 182 569 185T597 186T616 173T623 146Q622 126 623 109T630 78Q636 61 646 55T674 50Q686 51 699 60T725 82T752 111T777 144Q800 186 800 228T786 325Q780 349 769 379T745 442T716 503T686
553Q658 590 629 613T565 636Q539 636 510 623T445 580Q402 545 356 493T264 377T179 245T107 109Q85 60 76 23T68 -42T80 -90T108 -124Q135 -145 173 -151T263 -144L262 -143Q270 -126 282 -121T308 -117Q318 -119 324 -126T336 -142Q341 -154 340 -166T323 -191L322
-190Z" />
<glyph unicode="A" glyph-name="A" horiz-adv-x="702" d="M523 201Q488 282 459 368T397 534Q376 492 351 441T301 335T250 228T202 128Q238 136 278 145T359 163T442 182T523 201ZM704 17Q715 2 714 -13T702 -36Q688 -46 671 -45T641 -27Q633 -17 623 -1T603
33T584 68T568 100Q565 107 560 116T549 137Q443 111 348 90T163 47Q155 30 146 11T125 -29Q125 -39 120 -53T97 -76Q87 -81 73 -81Q60 -81 52 -73Q39 -61 39 -48Q39 -35 46 -21Q51 -10 57 1T71 24Q52 22 35 28T17 55Q17 59 18 65T24 78T35 89T54 94Q67 97 81 100T107
108Q126 145 149 192T197 291T246 394T292 491T331 570T360 622Q360 635 369 646T397 658Q410 659 420 654T436 635Q458 583 479 526T522 413T562 307T599 220Q612 222 623 224T643 229Q654 231 666 226T684 197Q684 189 679 178T660 161Q653 159 645 157T628 152Q631
145 635 137T643 121Q648 111 656 97T673 67T690 39T704 17Z" />
<glyph unicode="B" glyph-name="B" horiz-adv-x="709" d="M678 106Q679 67 661 26T600 -58Q568 -88 530 -116T450 -167T363 -209T275 -238Q251 -243 225 -243T180 -223Q166 -209 166 -194T178 -167Q186 -159 197 -156T221 -161Q228 -166 238 -166T262 -162Q293
-155 332 -140T410 -104T486 -57T547 -3Q601 57 601 102Q601 128 586 151T538 197Q528 204 511 209T472 218T428 223T383 225Q357 225 342 234T316 265Q309 281 313 297T333 325Q368 350 406 369T488 419Q519 444 513 461Q507 477 469 483Q451 485 423 488T361
496T294 506T229 516Q229 470 227 415T222 304T218 194T218 97Q218 73 241 61Q258 50 261 35T257 7Q250 -4 237 -9T207 -8Q185 1 166 23T144 83Q141 129 142 187T145 306T151 424T155 528Q132 532 110 537T66 549T28 562T-1 576Q-18 586 -19 601T-12 629Q-4 640
10 645T40 640Q53 632 78 625T136 610T210 595T293 581Q345 573 393 568T481 557Q535 549 566 530T606 485T600 429T549 372Q519 350 497 337T448 309Q439 304 440 298T452 290Q465 289 482 288T516 283T550 273T582 258Q627 229 652 192T678 106Z" />
<glyph unicode="C" glyph-name="C" horiz-adv-x="646" d="M633 -12Q638 -29 631 -43T602 -63Q501 -88 418 -91T269 -83Q205 -70 171 -45T120 18Q109 43 106 72T106 133T119 197T141 260Q163 313 201 366T285 466T382 551T480 614Q500 624 513 624Q526 624 533
617Q544 606 544 588Q544 570 534 553Q525 538 514 533T485 529Q450 509 409 477T330 405T259 320T210 228Q202 205 195 182T185 136T183 92T192 53Q202 30 223 14T286 -9Q315 -14 346 -16T414 -16T493 -7T585 13Q623 22 633 -12Z" />
<glyph unicode="D" glyph-name="D" horiz-adv-x="674" d="M674 278Q678 249 658 213T606 139T537 69T467 13Q417 -22 361 -53T241 -117Q224 -126 211 -121T189 -104Q182 -91 185 -76T206 -51Q269 -18 324 12T424 75Q449 93 478 120T533 176T576 233T593 282Q593
312 571 340T503 398Q479 414 445 434T374 476T297 519T224 559Q218 484 211 405T197 257T186 138T181 69Q181 57 188 43T199 19Q207 3 201 -7T184 -24Q170 -29 154 -26T129 -5Q123 6 115 25T106 68Q106 83 108 114T114 186T122 278T132 382T143 490T152 596Q144
601 134 606T115 614Q104 614 94 619T77 636Q68 648 69 660T78 680Q87 690 102 693T135 689Q195 657 256 624T373 561T472 504T542 461Q675 375 674 278Z" />
<glyph unicode="E" glyph-name="E" horiz-adv-x="664" d="M644 32Q624 8 595 -9T531 -38Q506 -47 472 -56T400 -73T324 -85T255 -90Q228 -91 207 -81T171 -48Q158 -29 151 -2T144 59Q144 73 147 93T154 134T163 174T171 207Q161 205 144 204T119 204Q99 203 88
213T76 237Q76 256 97 273Q107 281 122 283T148 279Q159 280 171 281T194 285Q210 329 222 373T237 444Q238 455 238 464T235 480Q218 475 196 469T153 455Q134 448 123 455T107 476T109 504T133 526Q193 549 257 561T383 578T503 584T605 584Q625 584 635 572T643
546Q642 532 633 521T605 512Q532 515 455 512T311 495Q315 487 315 478T315 457Q313 423 302 381T277 296Q315 302 356 308T436 322T510 335T570 348Q586 352 596 343T608 320Q610 307 604 294T580 275Q555 269 514 261T426 245T333 230T254 217Q240 175 231 135T221
59Q220 40 223 24T235 -1Q249 -14 271 -12Q316 -10 380 1T504 32Q530 41 550 52T587 82Q600 95 614 95Q629 95 640 86Q650 78 653 62T644 32Z" />
<glyph unicode="F" glyph-name="F" horiz-adv-x="607" d="M687 522Q675 505 654 504Q644 504 631 509T609 523Q589 524 551 523T463 521T353 519T230 519Q231 478 233 438T238 359Q266 360 305 362T384 368T462 376T523 383Q544 386 561 394Q575 402 587 399T607
387Q617 375 617 358T600 328Q587 319 570 315T532 307Q505 303 469 300T393 293T313 287T240 283Q241 255 242 214T246 128T250 39T254 -42Q256 -61 244 -70T218 -79Q204 -79 191 -70T178 -44Q176 -6 174 37T169 124T165 207T163 280Q147 281 133 285Q121 290
115 299T108 318Q107 326 112 334T126 346Q134 349 143 352T160 357Q159 386 157 431T153 519Q145 519 130 519T105 519Q93 505 63 514Q42 521 32 534T20 562Q20 578 33 589T73 598Q127 593 201 592T352 592T497 596T610 598Q632 598 652 593T680 578Q693 563 694
548T687 522Z" />
<glyph unicode="G" glyph-name="G" horiz-adv-x="759" d="M788 349Q796 335 792 320T769 296Q757 291 739 289T702 285T663 284Q644 284 631 285V78Q646 75 646 58T631 21V-197Q631 -219 620 -230T594 -242Q583 -242 572 -236T552 -217Q546 -209 545 -196T555
-175V-22Q490 -50 434 -69T316 -96Q256 -105 210 -97T135 -60Q109 -34 98 10T94 118Q99 164 121 219T175 333T245 447T323 550T397 631T458 679Q475 689 488 687T511 674Q518 667 520 658T520 638Q517 625 509 616T482 605Q462 593 433 563T371 492T305 401T243
301T196 201T172 110Q165 29 196 -1Q213 -18 241 -22T307 -21Q335 -17 366 -9T430 10T495 34T556 61V285Q536 285 512 285T463 287T418 288T385 286Q380 283 370 279T348 276Q334 278 325 286T310 305Q305 318 311 331T335 352Q349 358 377 360T442 362T520 359T600
357Q652 357 688 358T736 365Q754 371 768 366T788 349Z" />
<glyph unicode="H" glyph-name="H" horiz-adv-x="732" d="M708 194Q708 180 699 170T672 159H607Q605 114 605 64T602 -30Q600 -53 591 -64T567 -76Q555 -76 543 -68T524 -42Q518 -25 519 -6T527 28Q527 60 528 90T531 158Q454 158 382 156T251 155Q249 130 247
113T244 82T243 55T242 23Q246 15 249 7T255 -14Q257 -30 250 -41T232 -58Q216 -66 198 -60T172 -30Q161 -1 165 45T175 155Q162 155 140 155Q118 155 106 157Q85 159 75 168T65 190Q65 203 74 215T103 234Q112 238 123 238T143 234Q154 233 163 232T181 229Q185
261 189 304T198 394T204 484T206 562Q205 583 217 594T245 605Q257 606 269 599T286 575Q288 566 288 554T281 532Q282 511 280 474T274 395T266 308T258 227Q286 227 320 227T389 228T461 229T532 230Q534 272 535 324T538 425T540 516T540 579Q538 583 535 588T530
597Q527 606 526 618T527 642Q530 653 539 660T559 670T582 669T601 655Q609 641 612 625T615 592Q616 569 616 523T614 423T611 318T608 230H672Q690 230 699 219T708 194Z" />
<glyph unicode="I" glyph-name="I" horiz-adv-x="456" d="M518 524Q518 510 509 500T482 487Q462 485 437 485Q413 485 388 485Q364 485 341 486T299 489Q301 440 299 385T294 272T286 157T279 48Q314 49 352 49Q390 49 417 49Q435 49 444 39T453 15Q454 1 444
-11T415 -23Q389 -23 350 -23T267 -26Q262 -34 254 -38T237 -42Q229 -42 222 -38T210 -26Q177 -27 149 -28T94 -27Q75 -27 65 -16T54 10Q54 23 64 34T94 46Q124 46 148 46Q173 46 205 48Q208 103 211 160T218 275T222 386T223 489Q200 490 174 490Q148 490 125
489Q115 481 102 480T76 481Q59 484 49 495T39 520Q38 532 47 543T76 558Q89 561 108 562T148 563Q169 563 190 563Q212 563 230 563Q234 571 242 575T259 579Q268 579 276 575T287 561Q329 560 381 560T480 560Q498 560 508 549T518 524Z" />
<glyph unicode="J" glyph-name="J" horiz-adv-x="360" d="M295 250Q299 191 295 140T277 46T238 -35T173 -104Q138 -132 103 -148T35 -170T-26 -169T-73 -146Q-87 -134 -88 -118T-82 -89Q-76 -78 -65 -72T-40 -68T-15 -77T1 -95Q8 -96 20 -96Q32 -96 47 -92T82
-77T124 -48Q154 -23 173 5T204 69T219 146T220 243Q214 366 206 466T200 633Q193 638 187 643T181 658Q181 670 189 688T205 717Q215 728 229 731T256 730Q268 726 274 718T279 697Q277 689 275 678T272 657Q273 621 275 574T281 475T288 365T295 250Z" />
<glyph unicode="K" glyph-name="K" horiz-adv-x="562" d="M594 -17Q605 -31 602 -44T592 -65Q584 -75 569 -79T537 -66Q523 -50 484 -29T395 15T293 65T201 117Q201 84 200 66T199 26Q196 31 198 30T203 24T209 13T214 4Q218 -14 205 -31Q197 -41 186 -44T159
-39Q149 -34 138 -21T126 14V183Q111 208 111 239Q111 270 131 295Q132 325 134 359T138 426T141 490T142 546Q142 567 155 576T185 585Q202 585 211 575T222 547Q224 531 215 506Q215 488 214 467T211 424T208 380T207 339Q237 354 281 371T366 406T438 439T473
463Q478 474 490 478T515 483Q535 483 541 469T545 440Q542 421 528 410T507 394Q477 376 433 358T343 321T260 286T205 255L203 211Q226 189 260 168T333 127T412 89T487 52T551 17T594 -17Z" />
<glyph unicode="L" glyph-name="L" horiz-adv-x="592" d="M609 90Q617 78 616 62T597 35Q562 14 516 -2T420 -29T317 -45T216 -50Q181 -49 157 -43T118 -21Q96 0 96 39T114 142Q156 284 176 402T208 608Q210 626 223 635T250 643T275 632T284 604Q275 498 252
376T190 122Q180 89 179 70T187 40Q194 32 205 29T235 26Q281 27 327 33T416 49T495 72T557 100Q574 109 587 106T609 90Z" />
<glyph unicode="M" glyph-name="M" horiz-adv-x="827" d="M816 -25Q817 -39 806 -52T774 -67Q755 -69 737 -56T710 -23Q694 15 680 59T654 151T631 244T612 331Q603 316 590 299T564 266T537 235T511 210Q488 190 462 180T408 170Q349 170 303 213Q274 240 251
274T212 349Q207 287 201 233T189 132T180 43T180 -36Q182 -56 170 -68T143 -81Q130 -82 119 -72T105 -40Q100 16 105 73T119 196T136 340T146 518Q144 528 141 540T138 563Q138 576 146 583T166 596Q178 601 190 599T207 588Q210 583 212 575T217 559Q227 555
227 545T224 525Q244 434 276 373T357 268Q385 243 411 245Q423 245 437 251T462 265Q474 275 490 293T523 332T555 375T581 415Q584 420 585 425T587 435Q590 447 601 452T626 458Q641 458 653 454T667 435Q677 388 689 333T715 221T744 113T775 19Q778 11 784
7T798 1Q814 -5 816 -25Z" />
<glyph unicode="N" glyph-name="N" horiz-adv-x="680" d="M630 459Q639 426 639 378T636 278T622 177T601 92Q585 43 552 13T477 -19Q451 -18 423 -5T366 41Q321 88 278 152T196 292Q192 253 189 212T182 134T178 63T179 7Q181 -4 183 -12T193 -23Q207 -28 211
-39T211 -62T197 -80T172 -86Q141 -83 126 -63T108 -15Q104 22 105 77T111 193T122 312T135 412Q130 423 124 436T114 464Q112 478 118 488T134 504Q145 509 156 508T176 497Q181 490 185 483T193 468Q209 466 215 452T215 421Q231 386 253 343T301 254T358 167T421
94Q438 77 452 71T478 65Q499 66 511 84T530 120Q537 138 545 175T559 254T567 339T565 412Q549 423 551 443Q552 459 561 469T582 484Q596 489 610 483T630 459Z" />
<glyph unicode="O" glyph-name="O" horiz-adv-x="809" d="M717 193Q717 228 666 274Q638 298 603 319T527 361Q479 384 434 387T352 385Q338 382 324 385T305 400Q278 380 252 345T204 269T171 192T158 130Q160 101 168 76T193 36Q222 9 282 9T449 45Q491 59 540
75T631 109Q677 129 697 149T717 193ZM795 195Q794 146 762 107T661 42Q617 25 568 9T475 -24Q364 -65 275 -62T135 -11Q83 38 83 130Q83 169 98 218T140 314T202 403T277 470Q280 491 293 502T329 507Q343 502 355 489T361 461Q367 457 377 459Q415 464 459 460T559
429Q600 409 641 384T717 332Q755 303 775 268T795 195Z" />
<glyph unicode="P" glyph-name="P" horiz-adv-x="590" d="M254 435Q245 396 236 336T223 208T220 67T235 -69Q239 -84 231 -94T208 -107Q193 -111 179 -105T160 -77Q146 -9 144 67T147 214T161 347T179 447Q183 467 197 472T226 472Q238 469 247 459T254 435ZM633
394Q634 363 611 334T539 281Q518 272 490 258T430 229T366 199T306 172Q289 164 276 171T256 191Q251 204 254 217T274 239Q305 253 336 268T398 297T454 323T500 346Q544 366 542 391Q542 406 525 420T471 443Q438 452 397 460T313 476T226 493T146 508T81 523T40
537Q23 546 19 558T19 584T35 605T64 614Q75 614 86 609T104 596Q143 585 192 575T293 556T396 536T491 515Q563 495 597 463T633 394Z" />
<glyph unicode="Q" glyph-name="Q" horiz-adv-x="756" d="M632 285Q629 301 623 322T609 364T592 404T573 438Q556 464 538 479T496 496Q463 498 416 464Q386 443 354 410T290 336T230 252T179 164Q147 101 145 63T163 5Q181 -11 212 -12T280 -5Q298 -1 319 5T362
19T405 35T443 51Q441 63 439 75T432 98Q420 102 416 122T422 161Q430 177 443 186T470 195Q479 195 486 189T497 169Q501 153 505 128T514 83Q535 94 555 106T586 127Q608 145 619 163T635 200T639 240T632 285ZM707 306Q714 274 716 243T711 181T686 122T636
68Q626 60 613 52T585 35T557 20T532 6Q542 -36 554 -75T582 -141Q591 -157 603 -164T626 -171Q643 -173 651 -184T659 -208Q658 -224 648 -235T618 -246Q585 -245 559 -229T518 -183Q498 -145 485 -104T461 -22Q440 -31 416 -41T368 -59T324 -74T290 -84Q222 -99
173 -91T95 -53Q61 -19 61 41Q61 102 103 187Q126 233 157 281T224 375T298 459T374 525Q445 575 504 573Q548 572 583 547T641 479Q662 442 680 394T707 306Z" />
<glyph unicode="R" glyph-name="R" horiz-adv-x="609" d="M496 374Q496 394 458 418Q426 439 368 461T244 500Q236 486 232 462T225 404T221 331T219 248Q246 257 279 268T344 290T406 312T457 335Q496 354 496 374ZM634 -72Q629 -86 617 -94T587 -98Q551 -88
504 -71T406 -32T307 14T218 62Q218 46 218 27T216 -12T215 -48T214 -77Q213 -97 202 -105T178 -114Q164 -113 152 -103T140 -74Q141 -34 142 17T144 111Q117 133 115 165T146 223Q146 257 146 297Q146 337 148 376T155 452T171 518Q154 523 134 527T100 533Q93
531 83 533T61 539T39 550T23 563Q12 574 12 586T19 609Q32 629 61 626Q71 626 81 622T97 611Q152 599 207 586T313 557T412 522T499 480Q587 426 587 372Q587 316 494 273Q467 260 432 247T361 221T289 196T223 171Q223 164 223 159T222 148Q256 125 304 100T405
51T510 8T606 -23Q626 -28 632 -43T634 -72Z" />
<glyph unicode="S" glyph-name="S" horiz-adv-x="459" d="M488 749Q512 727 486 693Q470 674 436 645T361 581T278 510T205 439Q163 394 163 357Q163 324 201 288Q214 275 234 257T277 220T319 183T354 151Q420 83 420 18Q421 -9 411 -34T383 -82Q365 -104 345
-122T304 -155T265 -181T231 -201Q214 -209 200 -205T177 -185Q169 -173 172 -159T192 -134Q205 -127 222 -117T257 -95T291 -69T321 -37Q343 -9 343 19Q342 55 299 99Q286 112 266 130T224 167T182 203T148 233Q82 291 82 354Q81 414 148 486Q179 520 216 554T288
617T354 671T402 713Q406 729 415 741T438 758Q453 763 466 760T488 749Z" />
<glyph unicode="T" glyph-name="T" horiz-adv-x="539" d="M645 489Q643 478 636 468T617 452Q605 446 589 448T562 460Q530 461 469 461Q409 461 331 459Q330 431 329 392T327 309Q327 266 327 221Q327 177 328 139T331 70T336 26Q357 10 355 -12Q353 -33 339
-41T308 -47Q293 -44 278 -31T259 11Q253 52 252 108T250 224T252 346T255 459Q218 458 175 458T91 457Q50 457 14 457T-47 459Q-66 459 -77 472T-87 500T-77 524T-50 533Q-8 531 47 531T163 530Q224 530 287 530T409 531T516 532Q566 532 600 531Q626 531 636
518T645 489Z" />
<glyph unicode="U" glyph-name="U" horiz-adv-x="691" d="M633 614Q637 596 642 561T649 477T649 373T636 259T605 145T550 41Q519 -4 478 -40T390 -97Q334 -120 282 -115T190 -73Q164 -49 146 -12T116 77Q103 142 106 209T118 335T136 440T146 509Q146 528 158
538T183 547Q198 547 210 537T222 507Q222 477 213 428T194 322T182 205T192 90Q210 15 242 -14Q265 -37 295 -39T360 -27T427 15T489 83Q515 119 532 165T558 261T571 361T573 455T567 534T557 589T561 623T584 642T613 640T633 614Z" />
<glyph unicode="V" glyph-name="V" horiz-adv-x="664" d="M714 453Q714 436 703 422T674 399Q639 352 600 298T518 188T432 76T348 -29Q341 -40 330 -45T305 -51Q293 -51 282 -45T263 -27Q235 17 206 72T148 186T95 299T50 396Q43 413 49 430T79 450Q80 450 87
450Q95 450 105 445T121 427Q169 321 211 233T301 64Q312 45 326 63Q350 93 379 131T439 210T501 292T559 371T607 437T641 482Q670 520 698 498Q710 488 712 474T714 453Z" />
<glyph unicode="W" glyph-name="W" horiz-adv-x="956" d="M892 330Q903 275 903 225Q903 175 884 128Q864 78 830 43T749 -16Q722 -29 691 -36T629 -42T568 -28T511 8Q491 27 479 53T459 109T448 173T444 240Q430 211 414 178T381 112T346 46T311 -15Q288 -54
263 -71T214 -83Q191 -80 174 -55T151 18Q146 61 140 115T128 228T120 347T116 465Q116 485 127 494T153 504Q167 504 178 495T190 468Q191 422 194 370T201 264T211 157T224 56Q226 41 230 32T240 23Q250 23 267 49Q280 71 296 101T329 166T362 235T394 302T421
359T441 399Q447 413 460 417T486 418Q497 416 505 407T511 381Q509 343 509 297T515 206T531 123T565 63Q594 34 634 32T710 47Q745 65 772 92T814 155Q826 184 826 225Q826 266 819 312Q811 358 798 400T772 475T746 529T729 555Q714 569 715 584T727 610Q737
620 752 622T781 610Q794 597 810 570T841 506T870 424T892 330Z" />
<glyph unicode="X" glyph-name="X" horiz-adv-x="529" d="M550 578Q548 558 537 549T523 535Q478 464 426 383T327 228Q346 200 369 169T419 105T472 43T527 -15Q541 -27 539 -42T526 -66Q516 -76 502 -77T474 -67Q447 -41 421 -12T371 47T325 105T284 160Q235
80 190 8T116 -115Q102 -138 92 -164Q87 -177 79 -182T61 -187Q44 -186 33 -173T24 -136Q27 -122 35 -107T51 -76Q63 -56 83 -24T127 48T180 134T239 227Q230 242 216 264T186 311T154 361T124 406T102 440T92 456Q84 470 86 483T99 505Q113 514 128 513T155 494Q159
488 175 464T211 409T251 347T284 297Q305 331 327 367T373 440T419 512T461 577Q467 587 473 591T483 604Q491 621 504 623T529 619Q539 612 545 602T550 578Z" />
<glyph unicode="Y" glyph-name="Y" horiz-adv-x="533" d="M648 562Q625 536 601 505T556 442Q523 391 495 347T442 260T392 176T342 89Q348 70 339 57T316 42Q308 28 295 5T266 -44T237 -91T214 -126Q203 -140 188 -141T162 -134Q150 -126 146 -114T153 -85Q178
-47 204 -2T254 85Q225 135 194 196T134 317T85 428T54 508Q49 521 57 531T78 547T104 548T124 527Q135 497 154 452T198 357T247 256T297 161Q312 186 332 222T378 300T433 389T493 482Q541 553 589 610Q601 623 617 622T645 613T659 591T648 562Z" />
<glyph unicode="Z" glyph-name="Z" horiz-adv-x="571" d="M567 489Q576 466 566 438T528 384Q493 351 446 310T350 224T254 138T173 60Q161 48 154 38T149 20Q154 9 183 6Q223 4 265 7T347 18T419 36T474 58Q492 68 505 62T526 44Q534 27 530 13T507 -9Q474 -24
431 -36T340 -57T243 -69T149 -67Q66 -58 52 -14Q45 7 56 34T97 90Q138 131 184 174T276 259T367 341T452 416Q460 424 464 432T464 446Q459 455 439 455Q357 451 288 442T144 416Q129 411 117 404T94 401T76 417Q69 428 70 441T85 469Q99 482 127 490Q206 509
292 519T477 531Q515 533 537 521T567 489Z" />
<glyph unicode="[" glyph-name="bracketleft" horiz-adv-x="237" d="M262 -121Q262 -135 252 -146T224 -157Q201 -157 187 -156T160 -155T134 -154T100 -153Q76 -155 62 -149T41 -131T34 -107T36 -81Q37 -49 38 12T39 149T40 309T41 470Q41 547 40 611T37 712Q33
766 48 782T99 786Q143 784 182 784T247 783Q266 783 276 771T285 745Q285 732 276 722T249 711Q222 711 184 711Q146 711 111 712Q113 677 114 614T115 474T116 313Q116 229 116 153T114 14T112 -81Q130 -80 142 -80T167 -79T192 -81T226 -84Q244 -86 253 -96T262
-121Z" />
<glyph unicode="\" glyph-name="backslash" horiz-adv-x="493" d="M25 616Q22 639 26 654T41 671Q54 673 63 669T83 648Q90 637 92 623T95 591Q128 538 176 474T278 343T385 210T481 87T551 -14T580 -81Q583 -110 558 -115Q545 -119 537 -117T524 -97Q519 -78
496 -42T437 42T358 144T270 255T182 367T105 471T50 557T25 616Z" />
<glyph unicode="]" glyph-name="bracketright" horiz-adv-x="222" d="M-24 -121Q-24 -107 -15 -97T12 -84Q32 -83 45 -82T71 -80T95 -79T126 -81Q125 -48 124 14T123 152T122 313Q122 397 122 474T124 614T127 712Q92 711 54 711Q16 711 -11 711Q-29 711 -38 721T-47
745Q-48 759 -38 771T-9 783Q17 783 56 783T139 786Q175 798 190 782T201 712Q199 676 198 612T197 470Q197 393 197 309T198 149T200 12T202 -81Q205 -93 205 -106T197 -131T176 -148T138 -153Q117 -153 104 -153T79 -154T52 -156T14 -157Q-4 -157 -14 -146T-24
-121Z" />
<glyph unicode="^" glyph-name="asciicircum" horiz-adv-x="346" d="M333 421Q342 410 341 400T332 382T315 374T295 381Q283 392 270 405T246 428Q243 432 240 432T234 429Q217 418 195 405T153 378Q142 371 131 374T114 388Q108 396 109 406T122 425Q149 441
176 458T225 488Q249 504 269 487Q284 473 302 454T333 421Z" />
<glyph unicode="_" glyph-name="underscore" horiz-adv-x="502" d="M545 -141Q546 -151 539 -163T517 -177Q503 -179 464 -180T372 -181T263 -182Q206 -182 156 -182Q106 -182 71 -182T27 -180Q-3 -181 -16 -171T-30 -148T-26 -122T-9 -107Q2 -104 40 -103T131
-101Q183 -101 242 -101Q302 -101 355 -101T447 -102T500 -100Q507 -99 515 -103T529 -113T540 -127T545 -141Z" />
<glyph unicode="`" glyph-name="grave" horiz-adv-x="276" d="M260 366Q254 359 244 356T223 361Q194 383 163 407T103 454Q91 463 92 474T100 493Q106 501 117 504T138 499Q169 474 198 451T256 405Q268 397 267 386T260 366Z" />
<glyph unicode="a" glyph-name="a" horiz-adv-x="614" d="M667 84Q677 71 675 54T656 27Q622 8 579 -7T498 -27Q454 -31 431 -22T390 13Q383 22 378 40T372 72Q371 80 365 81T350 77Q339 70 324 58T291 30T255 -1T221 -30Q183 -59 150 -60T96 -43Q70 -20 70 26Q71
48 77 69T93 111Q108 141 130 170T176 224T226 270T272 305Q290 317 313 330T362 350T418 353T476 325Q489 314 490 301T485 277Q477 263 460 259T426 264Q403 282 376 278T311 248Q293 236 271 217T227 174T188 127T158 79Q152 67 150 50T156 27Q167 18 188 36Q203
49 225 68T272 106T319 144T361 173Q376 182 391 185T419 186T438 173T445 146Q444 126 445 109T452 78Q458 61 468 55T496 50Q509 52 526 56T560 67T593 79T622 92Q637 99 648 96T667 84Z" />
<glyph unicode="b" glyph-name="b" horiz-adv-x="541" d="M487 290Q508 266 506 226T479 140Q467 115 449 88T408 37Q373 -1 331 -30T244 -88Q229 -98 215 -94T193 -77Q186 -65 189 -50T204 -26Q251 4 289 30T355 90Q373 110 388 133T412 175Q421 194 424 207T419
232Q414 239 404 241T375 242Q349 239 313 227T243 195Q226 185 210 171T186 140Q184 135 183 131T179 120Q177 106 177 93T179 67Q178 49 168 40T144 29T120 37T104 65Q98 94 97 133T96 217T102 309T111 401T123 483T135 550Q138 566 141 578T153 602Q167 622
192 620Q207 620 217 612T225 587Q224 575 218 564T210 545Q205 516 200 480T189 402T179 316T173 229Q183 241 199 252T231 272Q259 286 298 299T376 318Q416 324 443 316T487 290Z" />
<glyph unicode="c" glyph-name="c" horiz-adv-x="579" d="M596 107Q604 94 603 79T582 52Q564 42 531 27T453 -1T356 -25T244 -36Q190 -37 152 -24T94 13T74 72T99 148Q114 174 135 198T182 244T239 283T302 313Q314 317 331 318T360 317Q383 314 393 303T405
277Q405 263 396 251T369 235Q357 232 343 233T315 240Q297 235 276 223T234 194T197 156T169 116Q161 101 161 87T169 61T195 44T241 37Q291 37 339 46T429 68T501 95T546 117Q561 125 574 122T596 107Z" />
<glyph unicode="d" glyph-name="d" horiz-adv-x="619" d="M561 151Q563 123 550 109T519 94Q507 94 496 100T477 120Q466 137 452 155T420 189T382 213T342 222Q324 222 302 215T258 195T215 167T178 135Q167 124 162 112T157 91Q158 75 173 62T217 41Q233 36
259 33T317 29T384 34T454 51Q470 56 482 49T501 29Q506 15 501 1T473 -21Q432 -35 392 -40T315 -45Q279 -45 249 -42T198 -33Q137 -18 106 14T73 87Q71 131 114 177Q133 198 160 219T219 257T282 286T344 298Q368 298 387 293T422 278T452 258T478 237Q474 288
469 343T459 453T447 556T435 645Q431 665 441 677T466 692Q480 695 493 687T510 656Q516 612 524 548T539 414T552 275T561 151Z" />
<glyph unicode="e" glyph-name="e" horiz-adv-x="476" d="M308 275Q315 306 304 316Q296 321 284 319T263 312Q250 304 232 286Q211 265 192 235T162 172Q184 176 208 186T253 210T288 240T308 275ZM515 79Q522 66 518 51T494 30Q471 22 435 8T356 -20T265 -39T171
-38Q124 -30 100 -5Q54 39 69 120Q75 158 88 191T118 251T150 299T181 334T209 359T234 376Q246 382 260 386T290 392T321 392T349 382Q364 373 372 359T383 329T385 294T379 258Q370 225 346 197T288 146T217 110T144 92Q141 67 152 53T185 34Q219 26 259 32T339
51T414 77T473 98Q489 103 499 97T515 79Z" />
<glyph unicode="f" glyph-name="f" horiz-adv-x="401" d="M496 589Q492 575 482 567T459 559Q446 557 435 564T422 585Q420 590 420 594Q420 598 418 605Q415 616 407 622T389 628Q372 627 351 614T310 583Q298 572 285 553T263 516Q244 477 232 431T211 334Q248
338 293 343T384 353Q404 356 414 345T425 320Q425 307 417 295T391 281Q345 273 295 268T201 257Q195 194 195 129T197 5T207 -100T223 -170Q227 -181 234 -188T248 -205Q263 -232 243 -250Q231 -261 218 -261T192 -256Q161 -239 148 -199Q135 -154 128 -96T119
23T118 143T123 251Q108 249 95 248T66 246Q48 245 39 255T29 280Q28 293 37 305T65 319Q79 321 96 322T130 325Q138 385 154 442T193 548Q220 600 253 635Q263 645 278 657T313 680T354 698T399 706Q421 706 438 699T468 679T488 652T496 622Q499 605 496 589Z"
/>
<glyph unicode="g" glyph-name="g" horiz-adv-x="506" d="M444 331Q462 320 464 305T460 277T440 258T412 261Q406 265 399 266T385 267Q367 267 343 259T295 239T246 209T203 172Q188 155 175 132T159 92Q157 77 165 71T196 78Q210 86 227 96T262 115T297 132T330
144Q352 149 370 144T399 120Q406 107 412 77T421 7T423 -75T413 -157Q399 -219 363 -275T262 -371Q247 -380 231 -375T207 -359Q199 -347 201 -333T220 -307Q273 -274 299 -232T337 -140Q350 -84 346 -41T336 41Q334 54 327 57T308 55Q289 47 261 32T207 2Q178
-15 153 -18T109 -14T80 12T69 58Q69 104 93 146T150 224Q171 246 198 267T257 305T321 332T385 342Q401 342 416 341T444 331Z" />
<glyph unicode="h" glyph-name="h" horiz-adv-x="646" d="M768 96Q775 83 771 68T750 45Q705 25 668 12T588 -2Q550 -3 516 8T456 52Q438 75 429 104T414 152Q408 177 394 179T354 166Q340 158 319 143T276 108T232 68T194 28Q183 14 169 9T143 6T121 19T110 48Q104
129 104 205T111 349T138 473T186 571Q196 586 211 588T239 584Q254 576 259 562T250 531Q223 499 209 449T188 342T181 226T181 122Q195 137 214 154T253 186T291 215T322 236Q351 253 380 260T434 258Q456 250 468 233T487 186Q491 165 499 139T519 100Q530 86
543 79T585 72Q612 72 643 82T720 112Q737 120 749 115T768 96Z" />
<glyph unicode="i" glyph-name="i" horiz-adv-x="402" d="M488 66Q489 54 481 42T452 28Q438 26 414 19T362 1T306 -18T256 -33Q193 -48 158 -33T106 41Q101 60 101 85T102 130Q104 156 109 181T122 226Q116 228 116 234Q116 240 118 246Q122 255 130 268T146
290Q156 298 168 299T192 296Q206 291 213 281T214 257Q203 235 192 199T178 130Q177 110 178 94T182 67Q187 47 199 41T239 39Q256 42 283 52T339 73T397 94T446 103Q466 104 476 92T488 66ZM294 514Q306 506 312 494T318 467Q318 454 312 441T293 418Q276 406
254 407T214 425Q197 443 197 469T223 514Q238 525 258 525Q278 525 294 514Z" />
<glyph unicode="j" glyph-name="j" horiz-adv-x="259" d="M203 100Q203 48 197 -6T180 -111T152 -209T115 -293Q104 -313 85 -330T39 -346Q15 -346 4 -333T-7 -304Q-5 -285 7 -275Q15 -270 22 -270T38 -267Q43 -263 46 -257T53 -245Q69 -211 82 -170T105 -84T120
7T125 100Q125 162 114 220Q103 223 99 239Q97 246 97 256Q97 267 99 275Q102 286 111 293T131 304Q145 308 158 304T176 286Q190 247 196 200T203 100ZM159 547Q170 539 176 527T182 501T175 474T156 451Q142 440 119 440Q96 440 78 460Q61 479 62 505T86 547Q103
560 122 560Q142 560 159 547Z" />
<glyph unicode="k" glyph-name="k" horiz-adv-x="522" d="M555 -35Q550 -47 539 -55T513 -61Q468 -51 417 -28T318 22T230 79T169 130Q168 118 168 103T167 72T166 42T165 19Q163 1 153 -8T129 -17Q116 -17 105 -8T93 19Q91 63 92 120T102 238Q109 284 119 330T146
419T182 500T230 569Q241 580 256 580T282 573Q292 565 295 552T289 522Q249 465 225 407T188 282Q201 291 227 301T286 319T354 334T422 341Q457 343 484 338Q503 336 510 325T517 300Q516 284 505 273T473 266Q464 268 451 268T424 267Q398 265 370 260T316 248T266
233T228 217Q214 211 212 201T221 178Q241 161 277 136T357 86T446 40T529 12Q549 7 554 -7T555 -35Z" />
<glyph unicode="l" glyph-name="l" horiz-adv-x="427" d="M313 481Q310 536 293 540Q277 545 249 502Q236 482 223 453T199 388T180 314T172 239Q170 188 186 146Q212 177 238 212T281 288Q287 303 293 326T304 377T311 431T313 481ZM557 82Q562 69 557 55T531
32Q505 23 465 9T379 -15T288 -27T205 -14Q142 12 119 77T97 239Q97 281 105 326T126 412T157 490T193 553Q225 598 256 620T316 637Q346 633 365 599T389 496Q391 469 389 438T382 374T368 312T348 256Q336 228 321 203T288 154T254 111T220 74Q226 69 238 62T262
53Q287 49 317 52T379 64T444 82T507 104Q524 110 538 103T557 82Z" />
<glyph unicode="m" glyph-name="m" horiz-adv-x="966" d="M1084 54Q1079 46 1070 39T1049 30Q1045 30 1043 31T1033 33Q1020 31 989 24T925 5Q885 -9 845 -7T774 30Q751 56 737 94T712 176Q706 199 691 199Q674 199 638 172Q630 167 616 155T585 125T551 88T518
49Q511 39 500 34T478 29Q467 29 456 34T439 51Q426 79 416 114T394 173Q387 186 372 183Q354 182 335 156Q319 133 299 111T258 65Q242 47 225 22T196 -23Q186 -39 170 -42T141 -40Q130 -35 123 -24T115 3Q113 35 112 73T111 149T113 220T115 274Q117 294 128
303T154 312Q169 313 181 303T192 274Q190 233 189 186T189 95Q195 103 203 114T222 137Q237 153 252 171T281 207Q298 228 324 248T376 273Q399 277 419 268T455 225Q463 205 471 183T484 147Q486 138 492 138T504 144Q513 154 524 166T548 190T573 213T594 232Q663
291 711 291Q738 292 756 273T782 215Q789 177 802 140T832 82Q846 66 863 66T896 72Q914 78 933 84T972 95T1009 104T1040 109Q1065 110 1080 97Q1100 80 1084 54Z" />
<glyph unicode="n" glyph-name="n" horiz-adv-x="682" d="M811 77Q812 66 806 56T787 40Q781 38 775 37T760 37Q740 29 712 19T653 -6Q599 -29 551 -18T477 47Q460 82 455 115T447 171Q444 185 430 187Q421 189 410 185T385 173Q375 166 364 156T339 134T313 110T286
89Q274 80 260 66T232 37T208 8T192 -17Q181 -37 166 -40T136 -37T118 -21T113 1Q113 28 113 56Q113 85 113 111Q113 137 113 160T112 199Q97 203 97 217Q99 226 104 239T117 261Q122 268 131 270T151 272Q163 271 173 265T185 245Q186 231 187 211T188 169Q188
148 188 127Q188 106 187 90Q200 109 220 126T258 160Q279 180 301 200T344 234Q366 251 393 261T445 270Q474 271 495 254T521 202Q526 163 532 133T547 83Q558 59 580 57T624 63Q656 76 694 91T763 114Q786 119 798 108T811 77Z" />
<glyph unicode="o" glyph-name="o" horiz-adv-x="572" d="M412 92Q431 115 424 140T393 181Q378 181 358 181T319 181Q291 181 275 190T263 215Q258 218 253 216T239 211Q218 197 195 166T166 96Q157 48 172 26Q188 2 225 2Q254 1 277 5T319 18Q345 29 369 49T412
92ZM545 214Q545 206 541 198T529 186Q512 181 484 181Q490 173 495 159T501 127T496 88T471 46Q416 -19 351 -48Q323 -61 292 -66T226 -72Q135 -74 101 -16Q74 31 91 111Q97 141 109 168T140 219T180 260T226 290Q248 301 272 301T316 281Q325 284 336 284T355
283Q372 281 391 273T422 253H505Q523 253 534 241T545 214Z" />
<glyph unicode="p" glyph-name="p" horiz-adv-x="519" d="M507 174Q508 144 488 116T429 67Q423 64 414 60T393 50T370 40T352 30Q342 24 328 17T298 3T266 -8T237 -13Q216 -12 204 -2T191 24Q191 44 210 63Q220 71 233 73T258 71Q262 71 270 74T287 81T306 90T324
101Q331 105 341 109T360 118T378 125T390 131Q408 141 415 152T423 173Q423 186 412 198T381 219Q369 225 348 233T302 250T249 266T196 277Q189 212 183 140T173 -4T167 -144T166 -269Q181 -278 184 -299Q185 -309 181 -323T167 -346Q157 -357 145 -361T123 -363T104
-351T94 -327Q92 -319 92 -308T91 -285Q90 -209 92 -133T99 17T109 158T120 285Q113 286 106 286Q99 286 93 286Q86 287 80 287Q75 287 67 289Q53 294 47 303T40 322Q40 338 51 351T85 363Q190 358 274 335T422 282Q466 262 486 233T507 174Z" />
<glyph unicode="q" glyph-name="q" horiz-adv-x="551" d="M491 116Q474 74 459 19T434 -88T419 -184T420 -247Q429 -252 437 -261T446 -282Q447 -299 435 -314T403 -329Q371 -327 358 -304T342 -252Q339 -224 342 -183T353 -100T370 -17T389 50Q394 62 388 65T374
64Q363 59 348 50T316 31T280 8T243 -14Q203 -37 170 -36T115 -15Q84 14 87 73Q90 119 104 161T139 236Q170 285 213 322T300 382Q321 393 342 399T384 406Q405 406 422 398T450 371Q460 354 457 340T444 318Q421 300 395 318Q384 328 372 327T339 316Q321 308
302 295T264 265T230 231T204 196Q187 168 179 144T167 90Q165 77 168 69T177 55Q193 42 223 61Q248 77 277 95T334 130T387 160T431 179Q455 185 476 170Q488 162 493 148T491 116Z" />
<glyph unicode="r" glyph-name="r" horiz-adv-x="476" d="M495 205Q488 194 477 190T450 194Q439 199 431 200T414 200Q398 198 377 191T331 174T284 151T239 125Q222 114 210 103T193 83Q185 69 182 57T177 30Q175 11 165 3T140 -6Q126 -6 115 4T103 34Q102 53
102 78Q102 103 102 128Q102 154 103 177T107 219Q100 221 99 227T101 239Q107 248 111 257T119 276Q124 290 136 293T163 294Q174 290 182 281T188 258Q186 249 184 237T181 212T179 187T178 165Q185 173 191 178T206 189Q228 204 257 219T316 246T375 267T428
276Q448 277 464 271T489 259Q503 248 503 232Q503 217 495 205Z" />
<glyph unicode="s" glyph-name="s" horiz-adv-x="401" d="M431 347Q425 338 415 333T390 333T362 347Q348 347 326 342T280 327T233 307T192 283Q166 266 165 251Q165 238 189 225Q219 209 248 196T311 157Q334 138 344 111T354 58Q354 30 345 3T321 -47Q295 -87
259 -122T171 -185Q148 -198 123 -198Q99 -198 76 -187Q55 -176 51 -159T52 -128Q59 -113 74 -108T109 -114Q117 -120 127 -120T145 -114Q178 -94 209 -65T258 -7Q269 10 274 26T279 56Q280 81 262 99Q243 116 211 131T141 164Q107 178 90 199T73 244Q73 267 91
292T145 340Q164 353 190 367T245 392T305 412T367 421Q387 422 403 416T428 398Q439 386 439 372Q439 358 431 347Z" />
<glyph unicode="t" glyph-name="t" horiz-adv-x="379" d="M404 263Q404 250 395 240T367 228Q345 228 304 230T222 232Q222 204 224 174T229 115T237 60T246 15Q250 -2 242 -13T220 -28Q206 -32 191 -25T171 4Q160 48 154 108T147 232H74Q56 231 47 242T37 267Q37
281 46 292T74 306Q87 306 106 306T147 307Q147 338 149 378T157 461T170 548T187 631Q176 636 180 650Q182 657 188 666T199 685Q201 690 203 695T207 705Q214 721 229 724T257 720Q268 714 275 703T281 677Q281 666 277 659T268 643Q259 610 251 567T237 479T227
388T223 307Q234 307 253 307T294 305T337 303T374 299T396 287T404 263Z" />
<glyph unicode="u" glyph-name="u" horiz-adv-x="680" d="M730 77Q736 65 734 51T715 26Q692 12 658 0T586 -19Q552 -24 517 -14T464 24Q456 38 452 53T445 92Q425 66 396 38T341 -8Q300 -35 261 -43T188 -44Q159 -37 139 -18T107 31Q98 58 97 92T98 160T107 223T120
269Q126 285 138 292T163 299Q178 299 189 288T194 256Q187 234 182 207T174 154T172 103T178 63Q185 38 210 30Q227 25 250 30T298 52Q357 94 395 146T450 246Q456 260 469 264T496 267Q510 263 519 253T524 227Q513 183 512 147T520 86Q528 66 543 60T577 56Q606
59 633 69T681 91Q698 101 711 96T730 77Z" />
<glyph unicode="v" glyph-name="v" horiz-adv-x="469" d="M473 226Q473 212 464 199T436 183Q425 182 411 182Q398 182 384 185Q376 165 367 142T346 94T324 46T301 2Q263 -65 220 -65Q178 -65 140 -4Q131 11 122 32T106 73Q93 112 87 155T75 240Q70 244 68 251T66
265Q66 273 67 280T70 292Q74 312 86 322T113 331Q125 330 135 321T147 292Q148 275 150 252T156 203T165 150T179 97Q183 86 188 73T198 52Q205 42 210 37T220 31Q225 32 231 36T243 52Q263 86 282 128T317 214Q310 219 308 226T305 242Q305 271 337 284Q356 292
371 284T393 261Q402 258 414 258Q426 258 436 258Q455 261 464 251T473 226Z" />
<glyph unicode="w" glyph-name="w" horiz-adv-x="852" d="M801 77Q788 51 764 30T701 -12Q669 -28 630 -40T548 -52Q514 -52 484 -41T429 -3Q418 9 409 24T395 52Q392 63 383 63Q375 63 367 55Q353 42 335 28T290 -5Q248 -36 204 -37T127 -18Q107 -4 95 18T83
69Q83 105 93 140T120 205T162 254T213 279Q219 280 227 280Q236 280 241 279Q258 277 267 266T275 241Q274 229 268 220T247 211Q241 211 234 211Q228 211 223 209Q212 205 201 193T181 163T166 123T159 77Q159 54 179 42Q191 37 211 40T250 56Q263 64 278 76T310
101T341 127T368 151Q388 170 410 168T439 147Q442 137 446 124T456 98T467 72T480 52Q494 37 511 31T549 23Q576 23 606 32T667 55Q717 80 731 109Q739 125 738 141T729 175Q717 197 699 219T663 262Q649 278 649 292T660 317Q671 329 689 330T723 319Q733 313
739 305T745 282Q759 268 772 248T794 211Q812 179 815 146T801 77Z" />
<glyph unicode="x" glyph-name="x" horiz-adv-x="529" d="M528 27Q537 14 535 -2T516 -28Q482 -47 437 -44T348 -5Q299 37 253 99Q229 82 203 62T149 20T96 -24T45 -67Q45 -79 35 -92T9 -110Q-9 -114 -22 -107T-40 -87T-43 -59T-27 -31Q-6 -12 17 8T68 50T132
100T211 161Q198 182 187 201T166 234Q146 234 137 248Q132 256 132 266T131 285Q132 297 139 307T158 323T181 326T205 312Q212 304 220 290T238 261T255 232T271 208Q295 226 322 246T375 285T426 324T471 359Q485 370 498 366T520 351Q530 339 530 325T514 297Q471
264 418 226T312 145Q355 85 394 53Q415 35 438 31T482 38Q497 45 509 42T528 27Z" />
<glyph unicode="y" glyph-name="y" horiz-adv-x="647" d="M571 251Q573 228 573 191Q573 154 570 109T563 12T551 -93T536 -198T518 -296Q514 -316 500 -324T472 -329Q457 -327 448 -315T443 -281Q455 -234 464 -176T479 -58T488 59T493 163Q494 172 491 176T483
181T471 179T460 171Q444 156 420 135T369 92T315 48T264 12Q222 -14 184 -20T111 0Q99 11 88 30T75 81Q75 105 82 132T102 186T127 234T152 269Q163 283 178 285T204 282Q220 274 224 259T213 224Q204 213 194 196T175 161T161 125T155 93Q155 82 159 76T167 65Q176
56 190 59T225 75Q255 94 287 119T353 173T417 231T476 286Q488 299 505 302T537 300Q550 295 559 283T571 251Z" />
<glyph unicode="z" glyph-name="z" horiz-adv-x="451" d="M490 29Q492 17 487 4T465 -15Q440 -24 396 -32T303 -46T207 -51T127 -46Q90 -40 79 -9Q74 4 78 21T96 56Q114 79 135 101T176 142T215 177T246 205Q266 223 261 235Q259 245 236 245Q205 245 171 246T118
250Q99 252 89 263T78 289Q78 308 96 319Q108 327 122 327Q137 327 148 319Q160 318 176 318T208 317T240 316T267 315Q301 315 323 304T354 271Q363 251 354 225T315 170Q303 159 288 145T255 115T220 82T189 47Q182 39 184 33T199 25Q219 23 250 24T317 29T386
39T446 53Q463 58 475 50T490 29Z" />
<glyph unicode="{" glyph-name="braceleft" horiz-adv-x="269" d="M224 797Q243 804 257 797T276 775T276 746T252 723Q238 718 226 711T203 693Q189 666 188 637T189 578T199 518T207 457T205 398T181 341Q170 334 160 326T138 308Q146 297 150 284T158 257Q179
214 185 169T194 79T197 -12T208 -103L214 -104Q231 -105 246 -102T278 -96Q298 -92 310 -102T326 -126T322 -155T294 -174Q264 -181 233 -184T172 -177Q144 -161 134 -135T121 -80T118 -19Q118 12 111 38Q117 66 115 94T107 149T91 204T74 258Q63 263 52 268T32
285Q23 294 21 304T21 325T32 342T53 352Q70 353 82 365T108 388Q124 407 126 431T125 482T115 536T109 587Q98 620 102 653T123 715T165 766T224 797Z" />
<glyph unicode="|" glyph-name="bar" horiz-adv-x="303" d="M157 714Q169 734 181 743T204 748Q215 741 219 732T222 703Q221 691 214 678T197 651Q190 589 189 509T188 343T190 173T190 17T183 -105T164 -176Q156 -189 146 -192T125 -191Q113 -185 109 -178T110
-155Q118 -137 121 -94T126 8T128 137T127 279Q127 352 127 422T131 550T140 652T157 714Z" />
<glyph unicode="}" glyph-name="braceright" horiz-adv-x="298" d="M70 797Q103 788 129 766T171 716T191 654T185 587Q185 563 179 536T169 483T167 432T186 388Q199 378 211 366T241 352Q254 350 262 343T273 325T274 305T262 285Q254 274 243 269T220 258Q212
231 203 204T188 150T179 94T183 38Q176 12 176 -19Q176 -50 173 -79T160 -135T122 -177Q92 -188 61 -185T0 -174Q-20 -170 -28 -156T-33 -127T-17 -102T16 -96Q32 -99 47 -102T80 -104L86 -103Q95 -58 96 -13T100 78T108 169T136 257Q139 271 143 284T156 308Q145
317 135 325T113 341Q94 368 89 397T86 457T95 517T104 578T107 637T91 693Q80 703 68 710T42 723Q23 730 18 745T17 775T37 796T70 797Z" />
<glyph unicode="~" glyph-name="asciitilde" horiz-adv-x="377" d="M368 441Q359 406 341 392T301 378Q264 378 225 411Q207 426 192 426Q172 426 152 394Q145 382 134 380T112 384Q104 388 100 397T103 420Q119 453 142 468T189 483Q223 483 257 457Q286 436
297 436Q309 436 315 456Q320 470 331 473T351 474Q361 470 366 461T368 441Z" />
<glyph unicode="&#xa0;" glyph-name="space" horiz-adv-x="322" />
<glyph unicode="&#xa1;" glyph-name="exclamdown" horiz-adv-x="337" d="M237 73Q232 22 228 -37T220 -152T213 -256T207 -334Q206 -352 195 -361T170 -370Q159 -370 150 -362T137 -338Q135 -330 135 -319T134 -301Q134 -291 136 -286T141 -276Q143 -242 145 -199T151
-108T158 -13T167 77Q169 95 179 102T204 109T228 99T237 73ZM260 316Q274 300 274 278T254 239Q240 228 221 228Q202 228 189 239Q180 247 176 258T171 282Q171 294 176 304T190 322Q206 335 226 334T260 316Z" />
<glyph unicode="&#xa2;" glyph-name="cent" horiz-adv-x="441" d="M220 297Q203 285 185 266T154 222Q138 190 149 170T214 148Q212 183 215 222T220 297ZM436 201Q444 192 443 181T426 159Q415 151 402 141T369 118Q351 107 326 98T275 86Q275 71 275 58T280
38Q290 34 294 26T298 8T292 -9T277 -20Q257 -27 242 -16T221 19Q219 30 217 49T215 84Q165 87 134 100T89 136T78 187T100 250Q122 289 158 322T228 373Q230 405 234 434T243 480Q246 493 257 498T281 501Q292 499 299 492T302 470Q297 454 295 435T289 395Q300
399 313 399T333 399Q350 397 357 388T365 368Q365 357 358 347T339 331Q329 327 316 326T294 331Q291 329 288 329T283 326Q279 285 276 240T273 149Q290 149 308 155T337 168Q351 177 366 190T394 209Q407 214 418 212T436 201Z" />
<glyph unicode="&#xa3;" glyph-name="sterling" horiz-adv-x="551" d="M538 2Q523 -23 490 -34T417 -49T341 -52T281 -49Q257 -63 228 -67T170 -67T115 -49T71 -16Q61 -7 61 2Q61 11 66 17Q71 25 80 28T99 30Q114 28 134 26T175 20T219 15T260 12Q268 17 268 28T260
52Q257 58 250 69T232 93T212 122T192 153H143Q129 154 120 162T111 183Q111 191 114 198T127 208Q134 210 142 211T163 212Q148 238 140 265T131 320Q131 360 152 395T228 455Q247 463 271 470T321 481T371 485Q396 485 416 481Q442 476 467 461T502 427Q510 407
495 391Q490 386 484 383T470 380Q455 381 439 385T408 399Q395 407 397 422Q387 424 370 424T334 423T294 416T256 403Q225 389 211 369T196 326Q196 302 205 275T234 214Q276 214 322 216T404 219Q420 219 427 209T435 189Q435 177 427 168T404 159Q377 158 340
157T267 155Q282 132 296 111T319 77Q330 61 334 42T330 10Q354 8 378 8T423 12T460 21T484 37Q494 49 506 50T530 46T544 28T538 2Z" />
<glyph unicode="&#xa4;" glyph-name="currency" horiz-adv-x="646" d="M313 137Q314 127 307 118T285 107Q267 105 239 105Q212 105 183 105Q183 91 185 78T192 53Q202 30 223 14T286 -9Q315 -14 346 -16T414 -16T493 -7T585 13Q623 22 633 -12Q638 -29 631 -43T602
-63Q501 -88 418 -91T269 -83Q205 -70 171 -45T120 18Q102 56 104 106Q92 106 82 106Q72 106 67 105Q62 105 56 101T45 93Q37 88 28 89T12 96Q-2 106 1 126Q4 140 14 150T39 163Q50 165 69 166T111 166Q120 210 138 254Q133 254 129 254T121 253Q116 253 110 249T99
241Q91 236 82 237T66 244Q52 254 55 274Q58 288 68 298T93 311Q104 313 124 314T168 314Q195 360 231 405T309 489T395 561T480 614Q500 624 513 624Q526 624 533 617Q544 606 544 588Q544 570 534 553Q525 538 514 533T485 529Q458 513 427 490T365 439T305 379T253
312Q279 311 301 311T337 312T359 305T367 285Q368 275 361 266T339 255Q318 253 286 253T221 253Q214 240 210 228Q204 212 200 196T191 164Q219 162 243 162Q268 162 283 164Q297 166 305 157T313 137Z" />
<glyph unicode="&#xa5;" glyph-name="yen" horiz-adv-x="533" d="M343 102Q344 92 337 83T315 72Q295 70 265 70Q235 70 203 71Q190 50 178 31T158 1Q147 -13 132 -14T106 -7Q94 1 90 13T97 42Q102 50 106 57T116 73Q105 73 97 71Q92 71 86 67T75 59Q67 54 58
55T42 62Q28 72 31 92Q34 106 44 116T69 129Q81 132 103 132T152 132Q159 143 165 154T178 176Q161 177 148 177T128 175Q123 175 117 171T106 163Q98 158 89 159T73 166Q59 176 62 196Q65 210 75 220T100 233Q112 236 134 236T184 236Q156 286 139 327T111 405T92
471T77 530Q72 543 80 553T101 569T127 570T147 549Q158 519 165 491T181 432T203 366T241 288Q251 304 256 313T265 330T274 344T286 363T306 393T340 443Q388 514 436 571Q448 584 464 583T492 574T506 552T495 523Q472 497 448 466T403 403T370 354T352 327T341
312T333 298T320 275T295 232Q310 231 322 231T344 233Q358 235 366 226T374 206Q375 196 368 187T346 176Q332 174 313 174T273 174Q266 169 260 169Q255 161 250 151T237 129Q260 128 280 128T313 129Q327 131 335 122T343 102Z" />
<glyph unicode="&#xa6;" glyph-name="brokenbar" horiz-adv-x="303" d="M157 714Q169 734 181 743T204 748Q215 741 219 732T222 703Q221 691 214 678T197 651Q190 589 189 552T189 495T193 465T195 450T189 436T171 409Q163 396 153 393T132 394Q120 400 116
407T117 430Q132 467 132 502Q132 537 131 572T132 642T157 714ZM146 -55Q134 -75 122 -84T99 -89Q88 -81 84 -72T82 -43Q83 -31 90 -18T107 8Q114 70 115 107T116 164T113 194T111 209T117 223T136 250Q144 263 154 266T175 265Q187 258 191 251T190 229Q174 192
174 157T174 87T172 17T146 -55Z" />
<glyph unicode="&#xa7;" glyph-name="section" horiz-adv-x="539" d="M276 115Q302 105 320 85T348 40Q364 53 378 71T403 111T422 153T434 191Q442 221 436 250T402 292Q382 300 352 303T290 307Q284 307 275 308T259 311Q245 306 227 294T189 265T151 229T121
193Q103 169 106 154Q112 141 138 138Q155 135 171 134T203 130T238 125T276 115ZM477 583Q475 572 466 564T443 556Q437 556 428 557T412 560Q398 555 380 543T342 513T304 478T274 442Q259 422 262 408T296 385Q328 381 359 378T428 363Q457 353 475 332T502
285Q512 259 513 230T507 175Q496 128 474 83T413 -6Q392 -30 359 -38Q359 -48 358 -56T354 -74Q343 -120 321 -165T260 -254Q243 -274 220 -282T171 -288Q148 -285 138 -271T128 -241Q130 -224 142 -214T177 -208Q196 -214 214 -195T246 -149T269 -95T281 -57Q288
-29 282 1T249 44Q226 54 191 58T113 64Q39 69 22 116Q14 138 22 167T57 231Q78 258 110 291T181 351Q167 378 173 409T210 479Q224 498 243 520T286 563T336 602T392 631Q410 639 427 639T457 630Q471 622 476 609T477 583Z" />
<glyph unicode="&#xa8;" glyph-name="dieresis" horiz-adv-x="376" d="M192 438Q192 419 178 405T145 391Q125 391 112 404T98 438Q99 458 111 472T144 487Q164 487 178 473T192 438ZM360 438Q359 418 346 405T313 391Q293 391 280 404T266 438Q266 458 279 472T312
487Q331 487 345 473T360 438Z" />
<glyph unicode="&#xa9;" glyph-name="copyright" horiz-adv-x="864" d="M684 367Q692 354 691 339T670 312Q652 302 619 287T541 259T444 235T332 224Q278 223 240 236T182 273T162 332T187 408Q202 434 223 458T270 504T327 543T390 573Q402 577 419 578T448
577Q471 574 481 563T493 537Q493 523 484 511T457 495Q445 492 431 493T403 500Q385 495 364 483T322 454T285 416T257 376Q249 361 249 347T257 321T283 304T329 297Q379 297 427 306T517 328T589 355T634 377Q649 385 662 382T684 367ZM115 185Q129 165 156
150T225 126Q322 112 410 121T562 162Q611 184 653 221T739 316Q730 358 709 412T656 522T585 629T497 715Q449 751 410 763T340 773Q289 769 257 728T201 622Q190 590 176 551T148 470T123 390T108 321Q99 281 99 246T115 185ZM50 162Q27 204 24 253T37 362Q46
393 58 429T82 501T107 571T129 632Q155 720 210 775T338 841Q392 847 449 828T569 757Q622 714 662 661T732 554T781 449T809 358Q822 347 824 335T819 311Q825 288 830 257T836 209Q839 180 824 168T792 149Q777 147 759 153T739 170Q738 175 737 183T734 200Q701
168 665 141T594 96Q550 74 504 64T412 50T327 49T254 56Q184 61 132 89T50 162Z" />
<glyph unicode="&#xab;" glyph-name="guillemotleft" horiz-adv-x="372" d="M211 23Q218 13 216 4T206 -10Q198 -15 189 -15T171 -5Q161 7 149 23T124 57T99 91T78 122Q70 135 70 145T78 169Q86 182 98 198T123 231T149 263T174 291Q182 300 191 300Q201 300 208
294Q215 289 216 279T210 260Q184 230 163 204T126 154Q121 147 126 139Q143 112 166 83T211 23ZM342 23Q349 13 347 4T337 -10Q329 -15 320 -15T302 -5Q292 7 280 23T255 57T230 91T209 122Q201 135 201 145T209 169Q217 182 229 198T254 231T280 263T305 291Q313
300 322 300Q332 300 339 294Q346 289 347 279T341 260Q315 230 294 204T257 154Q252 147 257 139Q274 112 297 83T342 23Z" />
<glyph unicode="&#xac;" glyph-name="logicalnot" horiz-adv-x="822" d="M651 488Q654 506 649 510Q645 513 639 513T627 508Q623 506 619 503T610 494Q599 483 589 467T573 433Q585 435 598 440T622 453T641 470T651 488ZM345 245Q345 229 328 229Q314 229 314
245V298Q309 301 310 308T314 321Q320 333 332 333Q337 333 341 330T346 319Q346 314 346 304Q346 295 346 284T345 261Q345 251 345 245ZM658 115Q657 114 656 114Q651 109 646 103T638 92Q636 90 636 88Q636 86 634 82Q633 75 633 68T634 53Q634 44 628 39T615
34Q609 34 603 38T594 53Q590 66 590 89Q585 88 581 88T573 87Q550 85 538 89T517 108Q512 113 509 122T506 139Q504 148 495 142Q483 135 464 117T426 84Q410 72 394 69Q375 57 343 48T276 32T206 22T146 18Q106 20 93 34Q72 55 91 120Q114 196 124 259T141 369Q141
379 148 384T163 387Q171 386 177 381T182 367Q177 310 165 245T131 110Q120 75 130 66Q135 59 155 59Q175 59 201 62T253 69T305 80T348 94Q346 99 346 115Q346 126 349 137T357 160Q374 192 402 220T454 263Q463 270 475 277T501 288T530 290T562 274Q574 263
567 249Q563 241 554 239T535 242Q513 259 474 234Q464 227 453 217T430 194T408 169T392 144Q389 137 388 128T392 115Q397 110 408 120Q417 127 428 137T453 158T478 178T501 193Q518 203 531 200T545 179Q544 168 545 159T549 143Q552 134 557 131T572 128Q579
128 590 131Q592 180 598 230T611 312Q611 314 611 316T612 320Q596 319 579 322Q554 325 540 339Q521 358 521 389Q493 392 475 415Q466 428 461 443T452 469Q448 492 421 477Q413 473 402 465T379 447T356 425T335 404Q323 389 308 392T292 414Q288 456 288 494T291
568Q280 568 269 568T246 567Q244 544 244 510T243 440Q243 405 244 376T248 336Q253 331 256 326T258 315Q257 304 250 300T233 297Q225 298 217 305T208 328Q205 350 204 379T203 441T204 506T205 567Q185 566 163 566T118 565Q96 565 77 565T44 567Q34 567 28
573T23 587Q24 595 28 601T43 606Q67 605 97 605T161 604Q195 604 229 604Q264 604 296 604Q301 631 309 653T331 693Q337 701 344 701T359 700Q367 695 370 687T366 671Q345 646 338 604H388Q403 604 408 598T412 583Q410 570 397 562Q383 555 369 567Q361 567
352 567T332 568Q328 537 328 507T328 453Q336 461 346 470T366 489T387 504T404 514Q421 520 436 523T464 525Q486 522 492 487Q494 476 499 463T509 441Q515 429 528 428Q538 460 554 483T583 521Q591 528 598 534T612 542Q625 548 642 551T673 546Q690 536 692
518T689 479Q684 462 672 448T642 421Q639 415 633 412Q613 403 597 397T563 389Q561 364 586 361Q604 357 625 360T668 370T708 383T739 394Q748 397 753 394T761 385Q766 377 764 369T751 358Q735 353 711 344T658 327Q656 322 654 317T651 308Q646 279 640 235T632
146Q634 148 640 150Q641 150 642 151Q647 155 652 157T663 162Q677 171 697 178T739 188T775 187T798 173Q809 160 808 139T793 92Q787 79 778 65T757 37Q737 17 714 2T668 -29Q652 -39 642 -22Q637 -15 639 -8T648 5Q673 21 693 35T728 66Q738 77 746 89T758
112Q769 132 762 142Q757 149 738 148Q725 146 706 140T668 122Q666 121 666 121T663 119T658 115Z" />
<glyph unicode="&#xae;" glyph-name="registered" horiz-adv-x="505" d="M367 508Q364 502 358 500T343 501Q337 505 333 505T324 505Q307 502 280 491T231 465Q222 458 216 453T206 442Q201 434 200 428T198 414Q197 404 191 400T177 395Q170 395 164 400T158
416Q157 437 157 466T160 514Q156 515 156 518T157 525Q160 530 162 535T167 545Q169 553 176 555T190 555Q196 553 200 548T203 536Q201 526 200 511T198 486Q204 493 213 499Q225 507 240 515T272 529T303 540T332 545Q343 545 351 542T364 536Q371 530 371 521Q371
513 367 508ZM91 381Q106 358 150 349Q201 342 248 347T330 369Q356 381 378 400T424 451Q419 473 408 502T380 561T342 618T294 663Q269 683 248 689T211 694Q184 692 167 671T137 614Q131 597 124 576T109 533T96 490T87 453Q82 432 82 414T91 381ZM56 369Q32
415 49 476Q54 492 60 511T73 550T86 587T98 619Q112 666 141 695T210 731Q239 734 269 724T333 686Q361 663 382 635T420 578T446 522T461 474Q468 468 469 461T467 448Q470 436 472 419T475 394Q477 378 469 372T452 362Q444 360 435 363T424 373Q423 376 423
380T421 389Q403 372 384 357T347 333Q323 321 298 316T249 309T204 308T165 312Q127 315 100 330T56 369Z" />
<glyph unicode="&#xaf;" glyph-name="macron" horiz-adv-x="488" d="M400 706Q401 696 394 687T372 676Q351 674 318 674Q285 674 252 674T192 675T154 674Q149 674 143 670T132 662Q124 657 115 658T99 665Q85 675 88 695Q91 709 101 719T126 732Q142 736 175
736Q208 736 245 735T316 732T370 733Q384 735 392 726T400 706Z" />
<glyph unicode="0;" glyph-name="degree" horiz-adv-x="243" d="M177 425Q194 440 194 465Q194 491 177 506Q162 523 136 523Q111 523 96 506Q79 491 79 465Q79 440 96 425Q111 408 136 408Q162 408 177 425ZM203 399Q175 373 136 373Q98 373 70 399Q44 427
44 465Q44 504 70 532Q98 558 136 558Q175 558 203 532Q229 504 229 465Q229 427 203 399Z" />
<glyph unicode="1;" glyph-name="plusminus" horiz-adv-x="397" d="M358 145Q359 135 352 126T330 115Q309 113 276 113Q243 113 210 114T150 115T112 114Q107 114 101 110T90 102Q82 97 73 98T57 105Q43 115 46 135Q49 149 59 159T84 172Q100 176 133 176T203
174T274 171T328 172Q342 174 350 165T358 145ZM208 222Q198 221 189 228T178 250Q176 270 176 301Q176 333 177 365Q152 366 132 366Q113 366 105 364Q100 364 94 360T83 352Q75 347 66 348T50 355Q36 365 39 385Q42 399 52 409T77 422T118 425T178 424Q178 439
178 450Q178 462 177 468Q177 473 173 479T165 490Q160 498 161 507T168 523Q178 537 198 534Q212 531 222 521T235 496Q237 485 238 465T238 422Q264 421 285 421T321 422T343 415T351 395Q352 385 345 376T323 365Q307 363 284 363Q262 363 236 363Q234 330 234
300T235 252Q237 238 228 230T208 222Z" />
<glyph unicode="4;" glyph-name="acute" horiz-adv-x="317" d="M301 481Q308 470 306 460T292 442Q277 433 257 422T214 399T171 377T135 359Q121 353 111 357T96 372Q91 382 93 392T109 411Q125 419 145 429T187 450T228 471T264 490Q275 498 285 495T301 481Z" />
<glyph unicode="5;" glyph-name="mu" horiz-adv-x="680" d="M730 77Q736 65 734 51T715 26Q692 12 658 0T586 -19Q552 -24 517 -14T464 24Q456 38 452 53T445 92Q425 66 396 38T341 -8Q300 -35 261 -43T188 -44Q174 -40 169 -40T154 -30Q147 -68 146 -98T145
-142Q144 -146 147 -153T153 -165Q158 -174 156 -183T146 -197Q141 -202 133 -204T114 -204Q101 -199 84 -189T65 -164Q78 -122 82 -64T90 56T99 174T120 269Q126 285 138 292T163 299Q178 299 189 288T194 256Q187 234 182 207T174 154T172 103T178 63Q185 38
210 30Q227 25 250 30T298 52Q357 94 395 146T450 246Q456 260 469 264T496 267Q510 263 519 253T524 227Q513 183 512 147T520 86Q528 66 543 60T577 56Q606 59 633 69T681 91Q698 101 711 96T730 77Z" />
<glyph unicode="6;" glyph-name="paragraph" horiz-adv-x="648" d="M542 520Q519 514 500 509T448 497Q454 470 461 429T477 339T491 236T500 127T501 20T490 -77Q485 -98 471 -104T442 -107Q428 -104 420 -94T415 -69Q418 -55 419 -30T420 27T418 94T416
161T413 221T411 267Q381 280 338 280T251 278T169 274T111 281Q63 304 40 333T17 394Q18 431 52 463T159 515Q202 526 250 535T346 554T439 573T524 594Q531 602 542 607T564 612Q581 612 593 604T609 582Q610 577 610 573T610 564Q613 530 613 482Q613 434 611
385T604 290T595 217Q590 196 576 190T547 187Q533 190 525 200T520 225Q524 246 528 282T536 358T542 438T543 503L542 520Z" />
<glyph unicode="7;" glyph-name="periodcentered" horiz-adv-x="203" d="M134 264Q118 253 98 253T64 270T50 308Q50 331 70 347Q85 358 103 357T134 347Q144 340 148 329T153 305Q153 293 149 282T134 264Z" />
<glyph unicode="8;" glyph-name="cedilla" horiz-adv-x="401" d="M268 -110Q254 -133 232 -147T185 -164Q171 -166 164 -159T155 -143T158 -125T175 -113Q189 -109 199 -104T215 -93Q220 -88 219 -83T207 -74Q178 -66 178 -36Q178 -17 184 6Q188 22 198 27T217
31T233 22T237 5Q235 -3 233 -10T231 -21Q231 -27 233 -29T243 -34Q259 -39 266 -48T275 -69T275 -91T268 -110Z" />
<glyph unicode="b;" glyph-name="guillemotright" horiz-adv-x="372" d="M224 117Q215 103 203 87T178 54T152 22T128 -5Q120 -13 110 -13Q101 -13 94 -7Q87 -2 86 7T92 26Q118 57 140 84T176 132Q181 138 176 147Q159 174 136 203T91 263Q85 273 86 282T96
296T113 301T131 291Q141 279 153 263T179 229T204 194T224 164Q234 149 233 140T224 117ZM355 117Q346 103 334 87T309 54T283 22T259 -5Q251 -13 241 -13Q232 -13 225 -7Q218 -2 217 7T223 26Q249 57 271 84T307 132Q312 138 307 147Q290 174 267 203T222 263Q216
273 217 282T227 296T244 301T262 291Q272 279 284 263T310 229T335 194T355 164Q365 149 364 140T355 117Z" />
<glyph unicode="f;" glyph-name="questiondown" horiz-adv-x="416" d="M377 -357Q369 -367 356 -371T323 -369Q276 -350 232 -335T154 -308Q109 -293 88 -266T68 -207Q68 -160 115 -119Q186 -56 237 -6T302 70Q301 91 305 107Q307 118 315 124T332 132T351
131T367 119Q378 103 375 78T357 30Q343 9 322 -14T274 -62T220 -113T165 -167Q145 -185 145 -203Q147 -225 181 -239Q207 -250 244 -263T312 -287Q323 -285 338 -289T368 -305Q382 -318 383 -332T377 -357ZM331 294Q345 278 345 256T324 217Q310 206 292 207T260
217Q250 224 245 235T240 259T246 282T261 300Q277 311 297 311T331 294Z" />
<glyph unicode="0;" glyph-name="Agrave" horiz-adv-x="702" d="M452 717Q446 710 436 707T415 712Q386 734 355 758T295 805Q283 814 284 825T292 844Q298 852 309 855T330 850Q361 825 390 802T448 756Q460 748 459 737T452 717ZM523 201Q488 282 459 368T397
534Q376 492 351 441T301 335T250 228T202 128Q238 136 278 145T359 163T442 182T523 201ZM704 17Q715 2 714 -13T702 -36Q688 -46 671 -45T641 -27Q633 -17 623 -1T603 33T584 68T568 100Q565 107 560 116T549 137Q505 126 456 114T357 91T257 68T163 47Q155 30
147 12T127 -26Q127 -36 122 -50T99 -73Q89 -78 75 -78Q62 -78 54 -70Q41 -58 41 -45Q41 -32 48 -18Q53 -7 59 5T74 28Q52 18 35 26T17 55Q17 66 25 77T54 94Q66 98 79 100T107 108Q126 145 149 192T197 291T246 394T292 491T331 570T360 622Q360 635 369 646T397
658Q410 659 420 654T436 635Q458 583 479 526T522 413T562 307T599 220Q612 222 623 224T643 229Q654 231 666 226T684 197Q684 189 679 178T660 161Q653 159 645 157T628 152Q631 145 635 137T643 121Q648 111 656 97T673 67T690 39T704 17Z" />
<glyph unicode="1;" glyph-name="Aacute" horiz-adv-x="702" d="M533 859Q540 848 538 838T524 820Q509 811 489 800T446 777T403 755T367 737Q353 731 343 735T328 750Q323 760 325 770T341 789Q357 797 377 807T419 828T460 849T496 868Q507 876 517 873T533
859ZM523 201Q488 282 459 368T397 534Q376 492 351 441T301 335T250 228T202 128Q238 136 278 145T359 163T442 182T523 201ZM704 17Q715 2 714 -13T702 -36Q688 -46 671 -45T641 -27Q633 -17 623 -1T603 33T584 68T568 100Q565 107 560 116T549 137Q443 111 348
90T163 47Q155 30 146 11T125 -29Q125 -39 120 -53T97 -76Q87 -81 73 -81Q60 -81 52 -73Q39 -61 39 -48Q39 -35 46 -21Q51 -10 57 1T71 24Q52 22 35 28T17 55Q17 59 18 65T24 78T35 89T54 94Q67 97 81 100T107 108Q126 145 149 192T197 291T246 394T292 491T331
570T360 622Q360 635 369 646T397 658Q410 659 420 654T436 635Q458 583 479 526T522 413T562 307T599 220Q612 222 623 224T643 229Q654 231 666 226T684 197Q684 189 679 178T660 161Q653 159 645 157T628 152Q631 145 635 137T643 121Q648 111 656 97T673 67T690
39T704 17Z" />
<glyph unicode="2;" glyph-name="Acircumflex" horiz-adv-x="702" d="M501 765Q510 754 509 744T500 726T483 718T463 725Q451 736 438 749T414 772Q411 776 408 776T402 773Q385 762 363 749T321 722Q310 715 299 718T282 732Q276 740 277 750T290 769Q317
785 344 802T393 832Q417 848 437 831Q452 817 470 798T501 765ZM523 201Q488 282 459 368T397 534Q376 492 351 441T301 335T250 228T202 128Q238 136 278 145T359 163T442 182T523 201ZM704 17Q715 2 714 -13T702 -36Q688 -46 671 -45T641 -27Q633 -17 623 -1T603
33T584 68T568 100Q565 107 560 116T549 137Q443 111 348 90T163 47Q155 30 146 11T125 -29Q125 -39 120 -53T97 -76Q87 -81 73 -81Q60 -81 52 -73Q39 -61 39 -48Q39 -35 46 -21Q51 -10 57 1T71 24Q52 22 35 28T17 55Q17 59 18 65T24 78T35 89T54 94Q67 97 81 100T107
108Q126 145 149 192T197 291T246 394T292 491T331 570T360 622Q360 635 369 646T397 658Q410 659 420 654T436 635Q458 583 479 526T522 413T562 307T599 220Q612 222 623 224T643 229Q654 231 666 226T684 197Q684 189 679 178T660 161Q653 159 645 157T628 152Q631
145 635 137T643 121Q648 111 656 97T673 67T690 39T704 17Z" />
<glyph unicode="3;" glyph-name="Atilde" horiz-adv-x="702" d="M539 762Q530 727 512 713T472 699Q435 699 396 732Q378 747 363 747Q343 747 323 715Q316 703 305 701T283 705Q275 709 271 718T274 741Q290 774 313 789T360 804Q394 804 428 778Q457 757
468 757Q480 757 486 777Q491 791 502 794T522 795Q532 791 537 782T539 762ZM523 201Q488 282 459 368T397 534Q376 492 351 441T301 335T250 228T202 128Q238 136 278 145T359 163T442 182T523 201ZM704 17Q715 2 714 -13T702 -36Q688 -46 671 -45T641 -27Q633
-17 623 -1T603 33T584 68T568 100Q565 107 560 116T549 137Q443 111 348 90T163 47Q155 30 146 11T125 -29Q125 -39 120 -53T97 -76Q87 -81 73 -81Q60 -81 52 -73Q39 -61 39 -48Q39 -35 46 -21Q51 -10 57 1T71 24Q52 22 35 28T17 55Q17 59 18 65T24 78T35 89T54
94Q67 97 81 100T107 108Q126 145 149 192T197 291T246 394T292 491T331 570T360 622Q360 635 369 646T397 658Q410 659 420 654T436 635Q458 583 479 526T522 413T562 307T599 220Q612 222 623 224T643 229Q654 231 666 226T684 197Q684 189 679 178T660 161Q653
159 645 157T628 152Q631 145 635 137T643 121Q648 111 656 97T673 67T690 39T704 17Z" />
<glyph unicode="4;" glyph-name="Adieresis" horiz-adv-x="702" d="M523 201Q488 282 459 368T397 534Q376 492 351 441T301 335T250 228T202 128Q238 136 278 145T359 163T442 182T523 201ZM704 17Q715 2 714 -13T702 -36Q688 -46 671 -45T641 -27Q633 -17
623 -1T603 33T584 68T568 100Q565 107 560 116T549 137Q441 110 347 88T163 46Q155 29 146 10T125 -29Q125 -39 120 -53T97 -76Q87 -81 73 -81Q60 -81 52 -73Q39 -61 39 -48Q39 -35 46 -21Q51 -10 57 2T72 25Q51 20 35 27T17 55Q17 63 24 74T54 94Q66 98 79 100T107
108Q126 145 149 192T197 291T246 394T292 491T331 570T360 622Q360 635 369 646T397 658Q410 659 420 654T436 635Q458 583 479 526T522 413T562 307T599 220Q612 222 623 224T643 229Q654 231 666 226T684 197Q684 189 679 178T660 161Q653 159 645 157T628 152Q631
145 635 137T643 121Q648 111 656 97T673 67T690 39T704 17ZM362 774Q362 755 348 741T315 727Q295 727 282 740T268 774Q269 794 281 808T314 823Q334 823 348 809T362 774ZM530 774Q529 754 516 741T483 727Q463 727 450 740T436 774Q436 794 449 808T482 823Q501
823 515 809T530 774Z" />
<glyph unicode="5;" glyph-name="Aring" horiz-adv-x="702" d="M523 201Q488 282 459 368T397 534Q376 492 351 441T301 335T250 228T202 128Q238 136 278 145T359 163T442 182T523 201ZM457 726Q469 736 474 750T480 779Q480 794 475 808T457 833Q447 844
433 849T403 855Q388 855 374 850T350 833Q339 823 334 809T329 779Q329 764 334 750T350 726Q360 715 374 710T403 705Q418 705 432 710T457 726ZM704 17Q715 2 714 -13T702 -36Q688 -46 671 -45T641 -27Q633 -17 623 -1T603 33T584 68T568 100Q565 107 560 116T549
137Q441 110 347 88T163 46Q155 29 146 10T125 -29Q125 -39 120 -53T97 -76Q87 -81 73 -81Q60 -81 52 -73Q39 -61 39 -48Q39 -35 46 -21Q51 -10 57 2T72 25Q49 19 34 27T17 55Q17 63 24 74T54 94Q66 98 80 101T107 108Q126 145 149 192T197 291T246 394T292 491T331
570T360 622Q360 635 369 646T397 658Q410 659 420 654T436 635Q458 583 479 526T522 413T562 307T599 220Q623 226 643 229Q654 231 666 226T684 197Q684 189 679 178T660 161Q653 159 645 157T628 152Q631 145 635 137T643 121Q648 111 656 97T673 67T690 39T704
17ZM470 713Q442 687 403 687Q365 687 337 713Q311 741 311 779Q311 818 337 846Q365 872 403 872Q442 872 470 846Q496 818 496 779Q496 741 470 713Z" />
<glyph unicode="6;" glyph-name="AE" horiz-adv-x="1008" d="M994 548Q994 534 985 523T955 513Q925 515 886 516T807 517T727 514T656 506Q647 504 641 499T632 482Q629 462 626 439T621 392T618 345T616 300Q650 307 691 314T773 327T852 338T920 348Q937
349 946 338T958 313Q960 300 953 288T928 274Q856 263 774 251T616 223Q615 200 615 173T614 118T616 65T621 23Q624 8 633 2T659 -4Q699 -4 744 4T845 32Q871 41 892 53T929 82Q941 96 957 96Q973 96 983 85Q993 76 995 62T986 33Q966 8 936 -9T871 -38Q846 -47
817 -54T759 -67T701 -75T651 -77Q610 -77 583 -60T548 0Q544 20 542 47T539 104T538 160Q538 188 539 208Q491 199 447 188T358 164Q338 159 325 168T308 191Q298 228 340 239Q388 251 439 263T540 284Q541 306 542 333T546 386T551 436T556 474Q557 483 549 484T532
481Q496 458 433 405T283 254Q227 191 174 119T79 -29Q81 -40 78 -47Q74 -57 66 -66T50 -84Q36 -95 23 -94T-2 -85Q-11 -76 -14 -64T-11 -37Q8 3 35 46T93 133T158 220T228 303T301 381T376 452T447 511T508 555Q530 569 553 574T589 567Q596 571 603 572T621 576Q657
582 700 585T789 589T878 591T959 587Q977 585 985 574T994 548Z" />
<glyph unicode="7;" glyph-name="Ccedilla" horiz-adv-x="646" d="M418 -210Q404 -233 382 -247T335 -264Q321 -266 314 -259T305 -243T308 -225T325 -213Q339 -209 349 -204T365 -193Q370 -188 369 -183T357 -174Q328 -166 328 -136Q328 -117 334 -94Q334
-91 335 -90Q315 -89 298 -87T267 -83Q207 -72 173 -48T120 18Q109 43 106 72T106 133T119 197T141 260Q163 313 201 366T285 466T382 551T480 614Q500 624 513 624Q526 624 533 617Q544 606 544 588Q544 570 534 553Q525 538 514 533T485 529Q450 509 409 477T330
405T259 320T210 228Q202 205 195 182T185 136T183 92T192 53Q202 30 223 14T286 -9Q315 -14 346 -16T414 -16T493 -7T585 13Q623 22 633 -12Q638 -29 631 -42T604 -61Q541 -76 487 -82T388 -91Q388 -92 388 -92T387 -95Q385 -103 383 -110T381 -121Q381 -127 383
-129T393 -134Q409 -139 416 -148T425 -169T425 -191T418 -210Z" />
<glyph unicode="8;" glyph-name="Egrave" horiz-adv-x="664" d="M456 666Q450 659 440 656T419 661Q390 683 359 707T299 754Q287 763 288 774T296 793Q302 801 313 804T334 799Q365 774 394 751T452 705Q464 697 463 686T456 666ZM644 32Q624 8 595 -9T531
-38Q506 -47 472 -56T400 -73T324 -85T255 -90Q228 -91 207 -81T171 -48Q158 -29 151 -2T144 59Q144 73 147 93T154 134T163 174T171 207Q161 205 144 204T119 204Q99 203 88 213T76 237Q76 256 97 273Q107 281 122 283T148 279Q159 280 171 281T194 285Q210 329
222 373T237 444Q238 455 238 464T235 480Q218 475 196 469T153 455Q134 448 123 455T107 476T109 504T133 526Q193 549 257 561T383 578T503 584T605 584Q625 584 635 572T643 546Q642 532 633 521T605 512Q532 515 455 512T311 495Q315 487 315 478T315 457Q313
423 302 381T277 296Q315 302 356 308T436 322T510 335T570 348Q586 352 596 343T608 320Q610 307 604 294T580 275Q555 269 514 261T426 245T333 230T254 217Q240 175 231 135T221 59Q220 40 223 24T235 -1Q249 -14 271 -12Q316 -10 380 1T504 32Q530 41 550 52T587
82Q600 95 614 95Q629 95 640 86Q650 78 653 62T644 32Z" />
<glyph unicode="9;" glyph-name="Eacute" horiz-adv-x="664" d="M523 760Q530 749 528 739T514 721Q499 712 479 701T436 678T393 656T357 638Q343 632 333 636T318 651Q313 661 315 671T331 690Q347 698 367 708T409 729T450 750T486 769Q497 777 507 774T523
760ZM644 32Q624 8 595 -9T531 -38Q506 -47 472 -56T400 -73T324 -85T255 -90Q228 -91 207 -81T171 -48Q158 -29 151 -2T144 59Q144 73 147 93T154 134T163 174T171 207Q161 205 144 204T119 204Q99 203 88 213T76 237Q76 256 97 273Q107 281 122 283T148 279Q159
280 171 281T194 285Q210 329 222 373T237 444Q238 455 238 464T235 480Q218 475 196 469T153 455Q134 448 123 455T107 476T109 504T133 526Q193 549 257 561T383 578T503 584T605 584Q625 584 635 572T643 546Q642 532 633 521T605 512Q532 515 455 512T311 495Q315
487 315 478T315 457Q313 423 302 381T277 296Q315 302 356 308T436 322T510 335T570 348Q586 352 596 343T608 320Q610 307 604 294T580 275Q555 269 514 261T426 245T333 230T254 217Q240 175 231 135T221 59Q220 40 223 24T235 -1Q249 -14 271 -12Q316 -10 380
1T504 32Q530 41 550 52T587 82Q600 95 614 95Q629 95 640 86Q650 78 653 62T644 32Z" />
<glyph unicode="a;" glyph-name="Ecircumflex" horiz-adv-x="664" d="M497 701Q506 690 505 680T496 662T479 654T459 661Q447 672 434 685T410 708Q407 712 404 712T398 709Q381 698 359 685T317 658Q306 651 295 654T278 668Q272 676 273 686T286 705Q313
721 340 738T389 768Q413 784 433 767Q448 753 466 734T497 701ZM644 32Q624 8 595 -9T531 -38Q506 -47 472 -56T400 -73T324 -85T255 -90Q228 -91 207 -81T171 -48Q158 -29 151 -2T144 59Q144 73 147 93T154 134T163 174T171 207Q161 205 144 204T119 204Q99 203
88 213T76 237Q76 256 97 273Q107 281 122 283T148 279Q159 280 171 281T194 285Q210 329 222 373T237 444Q238 455 238 464T235 480Q218 475 196 469T153 455Q134 448 123 455T107 476T109 504T133 526Q193 549 257 561T383 578T503 584T605 584Q625 584 635 572T643
546Q642 532 633 521T605 512Q532 515 455 512T311 495Q315 487 315 478T315 457Q313 423 302 381T277 296Q315 302 356 308T436 322T510 335T570 348Q586 352 596 343T608 320Q610 307 604 294T580 275Q555 269 514 261T426 245T333 230T254 217Q240 175 231 135T221
59Q220 40 223 24T235 -1Q249 -14 271 -12Q316 -10 380 1T504 32Q530 41 550 52T587 82Q600 95 614 95Q629 95 640 86Q650 78 653 62T644 32Z" />
<glyph unicode="b;" glyph-name="Edieresis" horiz-adv-x="664" d="M348 706Q348 687 334 673T301 659Q281 659 268 672T254 706Q255 726 267 740T300 755Q320 755 334 741T348 706ZM516 706Q515 686 502 673T469 659Q449 659 436 672T422 706Q422 726 435
740T468 755Q487 755 501 741T516 706ZM644 32Q624 8 595 -9T531 -38Q506 -47 472 -56T400 -73T324 -85T255 -90Q228 -91 207 -81T171 -48Q158 -29 151 -2T144 59Q144 73 147 93T154 134T163 174T171 207Q161 205 144 204T119 204Q99 203 88 213T76 237Q76 256
97 273Q107 281 122 283T148 279Q159 280 171 281T194 285Q210 329 222 373T237 444Q238 455 238 464T235 480Q218 475 196 469T153 455Q134 448 123 455T107 476T109 504T133 526Q193 549 257 561T383 578T503 584T605 584Q625 584 635 572T643 546Q642 532 633
521T605 512Q532 515 455 512T311 495Q315 487 315 478T315 457Q313 423 302 381T277 296Q315 302 356 308T436 322T510 335T570 348Q586 352 596 343T608 320Q610 307 604 294T580 275Q555 269 514 261T426 245T333 230T254 217Q240 175 231 135T221 59Q220 40
223 24T235 -1Q249 -14 271 -12Q316 -10 380 1T504 32Q530 41 550 52T587 82Q600 95 614 95Q629 95 640 86Q650 78 653 62T644 32Z" />
<glyph unicode="c;" glyph-name="Igrave" horiz-adv-x="456" d="M324 648Q318 641 308 638T287 643Q258 665 227 689T167 736Q155 745 156 756T164 775Q170 783 181 786T202 781Q233 756 262 733T320 687Q332 679 331 668T324 648ZM518 524Q518 510 509 500T482
487Q462 485 437 485Q413 485 388 485Q364 485 341 486T299 489Q301 440 299 385T294 272T286 157T279 48Q314 49 352 49Q390 49 417 49Q435 49 444 39T453 15Q454 1 444 -11T415 -23Q389 -23 350 -23T267 -26Q262 -34 254 -38T237 -42Q229 -42 222 -38T210 -26Q177
-27 149 -28T94 -27Q75 -27 65 -16T54 10Q54 23 64 34T94 46Q124 46 148 46Q173 46 205 48Q208 103 211 160T218 275T222 386T223 489Q200 490 174 490Q148 490 125 489Q115 481 102 480T76 481Q59 484 49 495T39 520Q38 532 47 543T76 558Q89 561 108 562T148
563Q169 563 190 563Q212 563 230 563Q234 571 242 575T259 579Q268 579 276 575T287 561Q329 560 381 560T480 560Q498 560 508 549T518 524Z" />
<glyph unicode="d;" glyph-name="Iacute" horiz-adv-x="456" d="M413 771Q420 760 418 750T404 732Q389 723 369 712T326 689T283 667T247 649Q233 643 223 647T208 662Q203 672 205 682T221 701Q237 709 257 719T299 740T340 761T376 780Q387 788 397 785T413
771ZM518 524Q518 510 509 500T482 487Q462 485 437 485Q413 485 388 485Q364 485 341 486T299 489Q301 440 299 385T294 272T286 157T279 48Q314 49 352 49Q390 49 417 49Q435 49 444 39T453 15Q454 1 444 -11T415 -23Q389 -23 350 -23T267 -26Q262 -34 254 -38T237
-42Q229 -42 222 -38T210 -26Q177 -27 149 -28T94 -27Q75 -27 65 -16T54 10Q54 23 64 34T94 46Q124 46 148 46Q173 46 205 48Q208 103 211 160T218 275T222 386T223 489Q200 490 174 490Q148 490 125 489Q115 481 102 480T76 481Q59 484 49 495T39 520Q38 532 47
543T76 558Q89 561 108 562T148 563Q169 563 190 563Q212 563 230 563Q234 571 242 575T259 579Q268 579 276 575T287 561Q329 560 381 560T480 560Q498 560 508 549T518 524Z" />
<glyph unicode="e;" glyph-name="Icircumflex" horiz-adv-x="456" d="M369 693Q378 682 377 672T368 654T351 646T331 653Q319 664 306 677T282 700Q279 704 276 704T270 701Q253 690 231 677T189 650Q178 643 167 646T150 660Q144 668 145 678T158 697Q185
713 212 730T261 760Q285 776 305 759Q320 745 338 726T369 693ZM518 524Q518 510 509 500T482 487Q462 485 437 485Q413 485 388 485Q364 485 341 486T299 489Q301 440 299 385T294 272T286 157T279 48Q314 49 352 49Q390 49 417 49Q435 49 444 39T453 15Q454
1 444 -11T415 -23Q389 -23 350 -23T267 -26Q262 -34 254 -38T237 -42Q229 -42 222 -38T210 -26Q177 -27 149 -28T94 -27Q75 -27 65 -16T54 10Q54 23 64 34T94 46Q124 46 148 46Q173 46 205 48Q208 103 211 160T218 275T222 386T223 489Q200 490 174 490Q148 490
125 489Q115 481 102 480T76 481Q59 484 49 495T39 520Q38 532 47 543T76 558Q89 561 108 562T148 563Q169 563 190 563Q212 563 230 563Q234 571 242 575T259 579Q268 579 276 575T287 561Q329 560 381 560T480 560Q498 560 508 549T518 524Z" />
<glyph unicode="f;" glyph-name="Idieresis" horiz-adv-x="456" d="M228 698Q228 679 214 665T181 651Q161 651 148 664T134 698Q135 718 147 732T180 747Q200 747 214 733T228 698ZM396 698Q395 678 382 665T349 651Q329 651 316 664T302 698Q302 718 315
732T348 747Q367 747 381 733T396 698ZM518 524Q518 510 509 500T482 487Q462 485 437 485Q413 485 388 485Q364 485 341 486T299 489Q301 440 299 385T294 272T286 157T279 48Q314 49 352 49Q390 49 417 49Q435 49 444 39T453 15Q454 1 444 -11T415 -23Q389 -23
350 -23T267 -26Q262 -34 254 -38T237 -42Q229 -42 222 -38T210 -26Q177 -27 149 -28T94 -27Q75 -27 65 -16T54 10Q54 23 64 34T94 46Q124 46 148 46Q173 46 205 48Q208 103 211 160T218 275T222 386T223 489Q200 490 174 490Q148 490 125 489Q115 481 102 480T76
481Q59 484 49 495T39 520Q38 532 47 543T76 558Q89 561 108 562T148 563Q169 563 190 563Q212 563 230 563Q234 571 242 575T259 579Q268 579 276 575T287 561Q329 560 381 560T480 560Q498 560 508 549T518 524Z" />
<glyph unicode="&#xd0;" glyph-name="Eth" horiz-adv-x="674" d="M319 283Q320 273 313 264T291 253Q274 251 249 251T195 251Q189 184 185 135T181 69Q181 57 188 43T199 19Q207 3 201 -7T184 -24Q170 -29 154 -26T129 -5Q123 6 115 25T106 68Q106 88 110 137T120
253Q103 254 91 254T73 252Q68 252 62 248T51 240Q43 235 34 236T18 243Q4 253 7 273Q10 287 20 297T45 310Q57 312 78 313T126 313Q132 382 139 455T152 596Q144 601 134 606T115 614Q104 614 94 619T77 636Q68 648 69 660T78 680Q87 690 102 693T135 689Q195
657 256 624T373 561T472 504T542 461Q675 375 674 278Q674 248 655 212T605 139T538 70T467 13Q417 -22 361 -53T241 -117Q224 -126 211 -121T189 -104Q182 -91 185 -76T206 -51Q269 -18 324 12T424 75Q449 93 478 120T533 176T576 233T593 282Q593 312 571 340T503
398Q479 414 445 434T374 476T297 519T224 559Q219 497 213 434T201 310Q228 308 251 308Q274 308 289 310Q303 312 311 303T319 283Z" />
<glyph unicode="&#xd1;" glyph-name="Ntilde" horiz-adv-x="680" d="M521 603Q512 568 494 554T454 540Q417 540 378 573Q360 588 345 588Q325 588 305 556Q298 544 287 542T265 546Q257 550 253 559T256 582Q272 615 295 630T342 645Q376 645 410 619Q439 598
450 598Q462 598 468 618Q473 632 484 635T504 636Q514 632 519 623T521 603ZM630 459Q639 426 639 378T636 278T622 177T601 92Q585 43 552 13T477 -19Q451 -18 423 -5T366 41Q321 88 278 152T196 292Q192 253 189 212T182 134T178 63T179 7Q181 -4 183 -12T193
-23Q207 -28 211 -39T211 -62T197 -80T172 -86Q141 -83 126 -63T108 -15Q104 22 105 77T111 193T122 312T135 412Q130 423 124 436T114 464Q112 478 118 488T134 504Q145 509 156 508T176 497Q181 490 185 483T193 468Q209 466 215 452T215 421Q231 386 253 343T301
254T358 167T421 94Q438 77 452 71T478 65Q499 66 511 84T530 120Q537 138 545 175T559 254T567 339T565 412Q549 423 551 443Q552 459 561 469T582 484Q596 489 610 483T630 459Z" />
<glyph unicode="&#xd2;" glyph-name="Ograve" horiz-adv-x="809" d="M442 568Q436 561 426 558T405 563Q376 585 345 609T285 656Q273 665 274 676T282 695Q288 703 299 706T320 701Q351 676 380 653T438 607Q450 599 449 588T442 568ZM717 193Q717 228 666 274Q638
298 603 319T527 361Q479 384 434 387T352 385Q338 382 324 385T305 400Q278 380 252 345T204 269T171 192T158 130Q160 101 168 76T193 36Q222 9 282 9T449 45Q491 59 540 75T631 109Q677 129 697 149T717 193ZM795 195Q794 146 762 107T661 42Q617 25 568 9T475
-24Q364 -65 275 -62T135 -11Q83 38 83 130Q83 169 98 218T140 314T202 403T277 470Q280 491 293 502T329 507Q343 502 355 489T361 461Q367 457 377 459Q415 464 459 460T559 429Q600 409 641 384T717 332Q755 303 775 268T795 195Z" />
<glyph unicode="&#xd3;" glyph-name="Oacute" horiz-adv-x="809" d="M533 709Q540 698 538 688T524 670Q509 661 489 650T446 627T403 605T367 587Q353 581 343 585T328 600Q323 610 325 620T341 639Q357 647 377 657T419 678T460 699T496 718Q507 726 517 723T533
709ZM717 193Q717 228 666 274Q638 298 603 319T527 361Q479 384 434 387T352 385Q338 382 324 385T305 400Q278 380 252 345T204 269T171 192T158 130Q160 101 168 76T193 36Q222 9 282 9T449 45Q491 59 540 75T631 109Q677 129 697 149T717 193ZM795 195Q794
146 762 107T661 42Q617 25 568 9T475 -24Q364 -65 275 -62T135 -11Q83 38 83 130Q83 169 98 218T140 314T202 403T277 470Q280 491 293 502T329 507Q343 502 355 489T361 461Q367 457 377 459Q415 464 459 460T559 429Q600 409 641 384T717 332Q755 303 775 268T795
195Z" />
<glyph unicode="&#xd4;" glyph-name="Ocircumflex" horiz-adv-x="809" d="M541 613Q550 602 549 592T540 574T523 566T503 573Q491 584 478 597T454 620Q451 624 448 624T442 621Q425 610 403 597T361 570Q350 563 339 566T322 580Q316 588 317 598T330 617Q357
633 384 650T433 680Q457 696 477 679Q492 665 510 646T541 613ZM717 193Q717 228 666 274Q638 298 603 319T527 361Q479 384 434 387T352 385Q338 382 324 385T305 400Q278 380 252 345T204 269T171 192T158 130Q160 101 168 76T193 36Q222 9 282 9T449 45Q491
59 540 75T631 109Q677 129 697 149T717 193ZM795 195Q794 146 762 107T661 42Q617 25 568 9T475 -24Q364 -65 275 -62T135 -11Q83 38 83 130Q83 169 98 218T140 314T202 403T277 470Q280 491 293 502T329 507Q343 502 355 489T361 461Q367 457 377 459Q415 464
459 460T559 429Q600 409 641 384T717 332Q755 303 775 268T795 195Z" />
<glyph unicode="&#xd5;" glyph-name="Otilde" horiz-adv-x="809" d="M533 621Q524 586 506 572T466 558Q429 558 390 591Q372 606 357 606Q337 606 317 574Q310 562 299 560T277 564Q269 568 265 577T268 600Q284 633 307 648T354 663Q388 663 422 637Q451 616
462 616Q474 616 480 636Q485 650 496 653T516 654Q526 650 531 641T533 621ZM717 193Q717 228 666 274Q638 298 603 319T527 361Q479 384 434 387T352 385Q338 382 324 385T305 400Q278 380 252 345T204 269T171 192T158 130Q160 101 168 76T193 36Q222 9 282
9T449 45Q491 59 540 75T631 109Q677 129 697 149T717 193ZM795 195Q794 146 762 107T661 42Q617 25 568 9T475 -24Q364 -65 275 -62T135 -11Q83 38 83 130Q83 169 98 218T140 314T202 403T277 470Q280 491 293 502T329 507Q343 502 355 489T361 461Q367 457 377
459Q415 464 459 460T559 429Q600 409 641 384T717 332Q755 303 775 268T795 195Z" />
<glyph unicode="&#xd6;" glyph-name="Odieresis" horiz-adv-x="809" d="M717 193Q717 228 666 274Q638 298 603 319T527 361Q479 384 434 387T352 385Q338 382 324 385T305 400Q278 380 252 345T204 269T171 192T158 130Q160 101 168 76T193 36Q222 9 282 9T449
45Q491 59 540 75T631 109Q677 129 697 149T717 193ZM795 195Q794 146 762 107T661 42Q617 25 568 9T475 -24Q364 -65 275 -62T135 -11Q83 38 83 130Q83 169 98 218T140 314T202 403T277 470Q280 491 293 502T329 507Q343 502 355 489T361 461Q367 457 377 459Q415
464 459 460T559 429Q600 409 641 384T717 332Q755 303 775 268T795 195ZM402 622Q402 603 388 589T355 575Q335 575 322 588T308 622Q309 642 321 656T354 671Q374 671 388 657T402 622ZM570 622Q569 602 556 589T523 575Q503 575 490 588T476 622Q476 642 489
656T522 671Q541 671 555 657T570 622Z" />
<glyph unicode="&#xd7;" glyph-name="multiply" horiz-adv-x="397" d="M305 198Q298 191 287 190T264 199Q249 213 229 236T187 285Q168 268 154 256T134 237Q130 234 129 226T125 213Q118 193 99 193Q91 193 84 196T71 208Q63 220 64 235T74 261Q83 273 103 291T148
330Q138 341 131 349T119 362Q115 365 108 367T95 371Q85 373 81 380T75 398Q73 414 91 425Q103 432 117 431T143 421Q152 414 165 400T195 368Q215 384 231 398T257 423Q266 434 277 433T297 423Q304 416 305 405T296 382Q285 370 269 355T233 322Q253 297 272
274T305 239Q316 230 315 218T305 198Z" />
<glyph unicode="&#xd8;" glyph-name="Oslash" horiz-adv-x="809" d="M717 193Q717 228 666 274Q623 311 562 343Q533 304 500 262T434 176T367 92T304 11Q362 16 449 45Q491 59 540 75T631 109Q677 129 697 149T717 193ZM193 36Q207 22 229 16Q259 55 294 99T365
188T438 279T508 369Q465 386 425 388T352 385Q338 382 324 385T305 400Q278 380 252 345T204 269T171 192T158 130Q160 101 168 76T193 36ZM678 536Q675 516 656 482T606 404Q635 388 663 370T717 332Q755 303 775 268T795 195Q794 146 762 107T661 42Q617 25
568 9T475 -24Q347 -70 251 -59Q222 -99 203 -129T179 -177T166 -196T145 -195Q120 -190 123 -161Q125 -143 141 -113T185 -43Q157 -31 135 -11Q83 38 83 130Q83 169 98 218T140 314T202 403T277 470Q280 491 293 502T329 507Q343 502 355 489T361 461Q367 457
377 459Q395 461 415 462T457 460T503 451T554 431Q569 452 582 472T608 511Q608 528 610 542T620 568Q630 585 639 589T662 591Q673 589 677 574T678 536Z" />
<glyph unicode="&#xd9;" glyph-name="Ugrave" horiz-adv-x="691" d="M436 650Q430 643 420 640T399 645Q370 667 339 691T279 738Q267 747 268 758T276 777Q282 785 293 788T314 783Q345 758 374 735T432 689Q444 681 443 670T436 650ZM633 614Q637 596 642 561T649
477T649 373T636 259T605 145T550 41Q519 -4 478 -40T390 -97Q334 -120 282 -115T190 -73Q164 -49 146 -12T116 77Q103 142 106 209T118 335T136 440T146 509Q146 528 158 538T183 547Q198 547 210 537T222 507Q222 477 213 428T194 322T182 205T192 90Q210 15
242 -14Q265 -37 295 -39T360 -27T427 15T489 83Q515 119 532 165T558 261T571 361T573 455T567 534T557 589T561 623T584 642T613 640T633 614Z" />
<glyph unicode="&#xda;" glyph-name="Uacute" horiz-adv-x="691" d="M497 765Q504 754 502 744T488 726Q473 717 453 706T410 683T367 661T331 643Q317 637 307 641T292 656Q287 666 289 676T305 695Q321 703 341 713T383 734T424 755T460 774Q471 782 481 779T497
765ZM633 614Q637 596 642 561T649 477T649 373T636 259T605 145T550 41Q519 -4 478 -40T390 -97Q334 -120 282 -115T190 -73Q164 -49 146 -12T116 77Q103 142 106 209T118 335T136 440T146 509Q146 528 158 538T183 547Q198 547 210 537T222 507Q222 477 213 428T194
322T182 205T192 90Q210 15 242 -14Q265 -37 295 -39T360 -27T427 15T489 83Q515 119 532 165T558 261T571 361T573 455T567 534T557 589T561 623T584 642T613 640T633 614Z" />
<glyph unicode="&#xdb;" glyph-name="Ucircumflex" horiz-adv-x="691" d="M481 709Q490 698 489 688T480 670T463 662T443 669Q431 680 418 693T394 716Q391 720 388 720T382 717Q365 706 343 693T301 666Q290 659 279 662T262 676Q256 684 257 694T270 713Q297
729 324 746T373 776Q397 792 417 775Q432 761 450 742T481 709ZM633 614Q637 596 642 561T649 477T649 373T636 259T605 145T550 41Q519 -4 478 -40T390 -97Q334 -120 282 -115T190 -73Q164 -49 146 -12T116 77Q103 142 106 209T118 335T136 440T146 509Q146 528
158 538T183 547Q198 547 210 537T222 507Q222 477 213 428T194 322T182 205T192 90Q210 15 242 -14Q265 -37 295 -39T360 -27T427 15T489 83Q515 119 532 165T558 261T571 361T573 455T567 534T557 589T561 623T584 642T613 640T633 614Z" />
<glyph unicode="&#xdc;" glyph-name="Udieresis" horiz-adv-x="691" d="M633 614Q637 596 642 561T649 477T649 373T636 259T605 145T550 41Q519 -4 478 -40T390 -97Q334 -120 282 -115T190 -73Q164 -49 146 -12T116 77Q103 142 106 209T118 335T136 440T146 509Q146
528 158 538T183 547Q198 547 210 537T222 507Q222 477 213 428T194 322T182 205T192 90Q210 15 242 -14Q265 -37 295 -39T360 -27T427 15T489 83Q515 119 532 165T558 261T571 361T573 455T567 534T557 589T561 623T584 642T613 640T633 614ZM350 694Q350 675
336 661T303 647Q283 647 270 660T256 694Q257 714 269 728T302 743Q322 743 336 729T350 694ZM518 694Q517 674 504 661T471 647Q451 647 438 660T424 694Q424 714 437 728T470 743Q489 743 503 729T518 694Z" />
<glyph unicode="&#xdd;" glyph-name="Yacute" horiz-adv-x="533" d="M454 756Q461 745 459 735T445 717Q430 708 410 697T367 674T324 652T288 634Q274 628 264 632T249 647Q244 657 246 667T262 686Q278 694 298 704T340 725T381 746T417 765Q428 773 438 770T454
756ZM648 562Q625 536 601 505T556 442Q523 391 495 347T442 260T392 176T342 89Q348 70 339 57T316 42Q308 28 295 5T266 -44T237 -91T214 -126Q203 -140 188 -141T162 -134Q150 -126 146 -114T153 -85Q178 -47 204 -2T254 85Q225 135 194 196T134 317T85 428T54
508Q49 521 57 531T78 547T104 548T124 527Q135 497 154 452T198 357T247 256T297 161Q312 186 332 222T378 300T433 389T493 482Q541 553 589 610Q601 623 617 622T645 613T659 591T648 562Z" />
<glyph unicode="&#xde;" glyph-name="Thorn" horiz-adv-x="667" d="M382 817Q360 774 332 706T281 558Q336 547 390 537T491 515Q563 495 597 463T633 394Q634 363 611 334T539 281Q518 272 490 258T430 229T366 199T306 172Q289 164 276 171T256 191Q251 204
254 217T274 239Q305 253 336 268T398 297T454 323T500 346Q544 366 542 391Q542 406 525 420T471 443Q428 454 373 464T262 486Q259 480 255 460T246 414T238 361T232 313Q226 270 223 222T219 125T222 26T235 -69Q239 -84 231 -94T208 -107Q193 -111 179 -105T160
-77Q141 58 144 181T170 418T228 639T312 847Q321 866 335 867T364 860Q375 854 381 842T382 817Z" />
<glyph unicode="&#xdf;" glyph-name="germandbls" horiz-adv-x="550" d="M481 68Q465 37 443 13T396 -29T346 -59T298 -80Q280 -87 268 -80T250 -59Q245 -45 249 -32T271 -11Q323 12 357 36T414 102Q428 128 423 147T396 175Q375 183 344 183T286 176Q272 173
261 179T243 198Q236 211 237 227T252 256Q270 272 291 294T335 341T377 392T411 442Q435 483 419 504Q408 517 382 517Q364 516 344 511T300 495Q248 471 222 410T184 258Q179 207 177 149T176 38T182 -57T192 -119Q207 -128 209 -146T201 -177Q193 -187 183 -190T161
-192T140 -182T125 -158Q115 -127 109 -80T101 23T101 141T109 263Q120 383 159 454T270 561Q304 577 334 583T390 591Q421 593 443 585T481 561Q506 535 505 492T476 404Q455 371 421 328T349 250Q378 253 403 250T444 238Q469 226 482 208T500 166T499 118T481
68Z" />
<glyph unicode="&#xe0;" glyph-name="agrave" horiz-adv-x="614" d="M452 429Q446 422 436 419T415 424Q386 446 355 470T295 517Q283 526 284 537T292 556Q298 564 309 567T330 562Q361 537 390 514T448 468Q460 460 459 449T452 429ZM667 84Q677 71 675 54T656
27Q622 8 579 -7T498 -27Q454 -31 431 -22T390 13Q383 22 378 40T372 72Q371 80 365 81T350 77Q339 70 324 58T291 30T255 -1T221 -30Q183 -59 150 -60T96 -43Q70 -20 70 26Q71 48 77 69T93 111Q108 141 130 170T176 224T226 270T272 305Q290 317 313 330T362 350T418
353T476 325Q489 314 490 301T485 277Q477 263 460 259T426 264Q403 282 376 278T311 248Q293 236 271 217T227 174T188 127T158 79Q152 67 150 50T156 27Q167 18 188 36Q203 49 225 68T272 106T319 144T361 173Q376 182 391 185T419 186T438 173T445 146Q444 126
445 109T452 78Q458 61 468 55T496 50Q509 52 526 56T560 67T593 79T622 92Q637 99 648 96T667 84Z" />
<glyph unicode="&#xe1;" glyph-name="aacute" horiz-adv-x="614" d="M484 541Q491 530 489 520T475 502Q460 493 440 482T397 459T354 437T318 419Q304 413 294 417T279 432Q274 442 276 452T292 471Q308 479 328 489T370 510T411 531T447 550Q458 558 468 555T484
541ZM667 84Q677 71 675 54T656 27Q622 8 579 -7T498 -27Q454 -31 431 -22T390 13Q383 22 378 40T372 72Q371 80 365 81T350 77Q339 70 324 58T291 30T255 -1T221 -30Q183 -59 150 -60T96 -43Q70 -20 70 26Q71 48 77 69T93 111Q108 141 130 170T176 224T226 270T272
305Q290 317 313 330T362 350T418 353T476 325Q489 314 490 301T485 277Q477 263 460 259T426 264Q403 282 376 278T311 248Q293 236 271 217T227 174T188 127T158 79Q152 67 150 50T156 27Q167 18 188 36Q203 49 225 68T272 106T319 144T361 173Q376 182 391 185T419
186T438 173T445 146Q444 126 445 109T452 78Q458 61 468 55T496 50Q509 52 526 56T560 67T593 79T622 92Q637 99 648 96T667 84Z" />
<glyph unicode="&#xe2;" glyph-name="acircumflex" horiz-adv-x="614" d="M486 467Q495 456 494 446T485 428T468 420T448 427Q436 438 423 451T399 474Q396 478 393 478T387 475Q370 464 348 451T306 424Q295 417 284 420T267 434Q261 442 262 452T275 471Q302
487 329 504T378 534Q402 550 422 533Q437 519 455 500T486 467ZM667 84Q677 71 675 54T656 27Q622 8 579 -7T498 -27Q454 -31 431 -22T390 13Q383 22 378 40T372 72Q371 80 365 81T350 77Q339 70 324 58T291 30T255 -1T221 -30Q183 -59 150 -60T96 -43Q70 -20
70 26Q71 48 77 69T93 111Q108 141 130 170T176 224T226 270T272 305Q290 317 313 330T362 350T418 353T476 325Q489 314 490 301T485 277Q477 263 460 259T426 264Q403 282 376 278T311 248Q293 236 271 217T227 174T188 127T158 79Q152 67 150 50T156 27Q167
18 188 36Q203 49 225 68T272 106T319 144T361 173Q376 182 391 185T419 186T438 173T445 146Q444 126 445 109T452 78Q458 61 468 55T496 50Q509 52 526 56T560 67T593 79T622 92Q637 99 648 96T667 84Z" />
<glyph unicode="&#xe3;" glyph-name="atilde" horiz-adv-x="614" d="M506 480Q497 445 479 431T439 417Q402 417 363 450Q345 465 330 465Q310 465 290 433Q283 421 272 419T250 423Q242 427 238 436T241 459Q257 492 280 507T327 522Q361 522 395 496Q424 475
435 475Q447 475 453 495Q458 509 469 512T489 513Q499 509 504 500T506 480ZM667 84Q677 71 675 54T656 27Q622 8 579 -7T498 -27Q454 -31 431 -22T390 13Q383 22 378 40T372 72Q371 80 365 81T350 77Q339 70 324 58T291 30T255 -1T221 -30Q183 -59 150 -60T96
-43Q70 -20 70 26Q71 48 77 69T93 111Q108 141 130 170T176 224T226 270T272 305Q290 317 313 330T362 350T418 353T476 325Q489 314 490 301T485 277Q477 263 460 259T426 264Q403 282 376 278T311 248Q293 236 271 217T227 174T188 127T158 79Q152 67 150 50T156
27Q167 18 188 36Q203 49 225 68T272 106T319 144T361 173Q376 182 391 185T419 186T438 173T445 146Q444 126 445 109T452 78Q458 61 468 55T496 50Q509 52 526 56T560 67T593 79T622 92Q637 99 648 96T667 84Z" />
<glyph unicode="&#xe4;" glyph-name="adieresis" horiz-adv-x="614" d="M667 84Q677 71 675 54T656 27Q622 8 579 -7T498 -27Q454 -31 431 -22T390 13Q383 22 378 40T372 72Q371 80 365 81T350 77Q339 70 324 58T291 30T255 -1T221 -30Q183 -59 150 -60T96 -43Q70
-20 70 26Q71 48 77 69T93 111Q108 141 130 170T176 224T226 270T272 305Q290 317 313 330T362 350T418 353T476 325Q489 314 490 301T485 277Q477 263 460 259T426 264Q403 282 376 278T311 248Q293 236 271 217T227 174T188 127T158 79Q152 67 150 50T156 27Q167
18 188 36Q203 49 225 68T272 106T319 144T361 173Q376 182 391 185T419 186T438 173T445 146Q444 126 445 109T452 78Q458 61 468 55T496 50Q509 52 526 56T560 67T593 79T622 92Q637 99 648 96T667 84ZM354 470Q354 451 340 437T307 423Q287 423 274 436T260
470Q261 490 273 504T306 519Q326 519 340 505T354 470ZM522 470Q521 450 508 437T475 423Q455 423 442 436T428 470Q428 490 441 504T474 519Q493 519 507 505T522 470Z" />
<glyph unicode="&#xe5;" glyph-name="aring" horiz-adv-x="614" d="M431 430Q443 440 448 454T454 483Q454 498 449 512T431 537Q421 548 407 553T377 559Q362 559 348 554T324 537Q313 527 308 513T303 483Q303 468 308 454T324 430Q334 419 348 414T377 409Q392
409 406 414T431 430ZM667 84Q677 71 675 54T656 27Q622 8 579 -7T498 -27Q454 -31 431 -22T390 13Q383 22 378 40T372 72Q371 80 365 81T350 77Q339 70 324 58T291 30T255 -1T221 -30Q183 -59 150 -60T96 -43Q70 -20 70 26Q71 48 77 69T93 111Q108 141 130 170T176
224T226 270T272 305Q290 317 313 330T362 350T418 353T476 325Q489 314 490 301T485 277Q477 263 460 259T426 264Q403 282 376 278T311 248Q293 236 271 217T227 174T188 127T158 79Q152 67 150 50T156 27Q167 18 188 36Q203 49 225 68T272 106T319 144T361 173Q376
182 391 185T419 186T438 173T445 146Q444 126 445 109T452 78Q458 61 468 55T496 50Q509 52 526 56T560 67T593 79T622 92Q637 99 648 96T667 84ZM444 417Q416 391 377 391Q339 391 311 417Q285 445 285 483Q285 522 311 550Q339 576 377 576Q416 576 444 550Q470
522 470 483Q470 445 444 417Z" />
<glyph unicode="&#xe6;" glyph-name="ae" horiz-adv-x="776" d="M430 270Q416 268 405 276T387 287Q369 295 346 287T288 255Q276 247 259 230T225 188T192 136T165 78Q162 70 160 63T155 47Q152 33 158 28T178 31Q199 46 225 69T279 120T334 176T386 230Q401
245 415 245Q418 250 422 257T430 270ZM608 318Q602 323 588 319T567 310Q557 304 551 300T535 285Q515 265 494 233T458 168Q480 174 504 184T548 208T584 238T605 272Q608 282 610 297T608 318ZM813 83Q821 69 817 52T794 28Q771 20 736 5T657 -22T565 -42T471
-41Q433 -35 410 -19T375 28Q370 40 368 61T367 100Q337 69 302 36T220 -34Q194 -55 167 -60T119 -58T85 -28T77 26Q80 49 85 72T97 110Q109 138 125 167T160 225T202 277T251 319Q269 331 289 342T330 360T374 367Q396 367 419 357Q433 350 447 341T463 314Q470
324 479 334T499 352T518 367T534 377Q545 382 559 387T588 394T619 394T649 383Q664 372 672 358T682 327T684 293T678 259Q669 226 645 197T587 145T516 109T442 91Q442 62 453 51T484 34Q514 27 554 33T634 50T711 75T773 97Q787 102 797 98T813 83Z" />
<glyph unicode="&#xe7;" glyph-name="ccedilla" horiz-adv-x="579" d="M306 -156Q293 -180 271 -194T223 -210Q209 -211 202 -205T193 -189T196 -171T213 -159Q227 -155 237 -150T253 -139Q258 -134 257 -129T245 -120Q216 -112 216 -82Q216 -63 222 -40Q226 -24
236 -19T255 -15T271 -24T275 -41Q273 -49 271 -56T269 -67Q269 -73 271 -75T281 -80Q297 -85 304 -94T313 -115T313 -137T306 -156ZM596 107Q604 94 602 78T582 52Q538 29 490 12T393 -17T299 -34T216 -36Q168 -32 136 -17T88 22T74 78T99 148Q114 174 135 198T182
244T239 283T302 313Q314 317 331 318T360 317Q383 314 393 303T405 277Q405 263 396 251T369 235Q357 232 343 233T315 240Q297 235 276 223T234 194T197 156T169 116Q161 101 161 87T169 61T195 44T241 37Q291 37 339 46T429 68T501 95T546 117Q561 125 574 122T596
107Z" />
<glyph unicode="&#xe8;" glyph-name="egrave" horiz-adv-x="476" d="M371 465Q365 458 355 455T334 460Q305 482 274 506T214 553Q202 562 203 573T211 592Q217 600 228 603T249 598Q280 573 309 550T367 504Q379 496 378 485T371 465ZM308 275Q315 306 304 316Q296
321 284 319T263 312Q250 304 232 286Q211 265 192 235T162 172Q184 176 208 186T253 210T288 240T308 275ZM515 79Q522 66 518 50T494 28Q471 20 435 6T356 -22T265 -41T171 -40Q148 -36 130 -27T100 -5Q54 39 69 120Q75 158 88 191T118 251T150 299T181 334T209
359T234 376Q246 382 260 386T290 392T321 392T349 382Q364 373 372 359T383 329T385 294T379 258Q370 225 346 197T288 146T217 110T144 92Q141 67 152 53T185 34Q219 26 259 32T339 51T414 77T473 98Q489 103 499 97T515 79Z" />
<glyph unicode="&#xe9;" glyph-name="eacute" horiz-adv-x="476" d="M439 589Q446 578 444 568T430 550Q415 541 395 530T352 507T309 485T273 467Q259 461 249 465T234 480Q229 490 231 500T247 519Q263 527 283 537T325 558T366 579T402 598Q413 606 423 603T439
589ZM308 275Q315 306 304 316Q296 321 284 319T263 312Q250 304 232 286Q211 265 192 235T162 172Q184 176 208 186T253 210T288 240T308 275ZM515 79Q522 66 518 50T494 28Q471 20 435 6T356 -22T265 -41T171 -40Q148 -36 130 -27T100 -5Q54 39 69 120Q75 158
88 191T118 251T150 299T181 334T209 359T234 376Q246 382 260 386T290 392T321 392T349 382Q364 373 372 359T383 329T385 294T379 258Q370 225 346 197T288 146T217 110T144 92Q141 67 152 53T185 34Q219 26 259 32T339 51T414 77T473 98Q489 103 499 97T515
79Z" />
<glyph unicode="&#xea;" glyph-name="ecircumflex" horiz-adv-x="476" d="M405 499Q414 488 413 478T404 460T387 452T367 459Q355 470 342 483T318 506Q315 510 312 510T306 507Q289 496 267 483T225 456Q214 449 203 452T186 466Q180 474 181 484T194 503Q221
519 248 536T297 566Q321 582 341 565Q356 551 374 532T405 499ZM308 275Q315 306 304 316Q296 321 284 319T263 312Q250 304 232 286Q211 265 192 235T162 172Q184 176 208 186T253 210T288 240T308 275ZM515 79Q522 66 518 50T494 28Q471 20 435 6T356 -22T265
-41T171 -40Q148 -36 130 -27T100 -5Q54 39 69 120Q75 158 88 191T118 251T150 299T181 334T209 359T234 376Q246 382 260 386T290 392T321 392T349 382Q364 373 372 359T383 329T385 294T379 258Q370 225 346 197T288 146T217 110T144 92Q141 67 152 53T185 34Q219
26 259 32T339 51T414 77T473 98Q489 103 499 97T515 79Z" />
<glyph unicode="&#xeb;" glyph-name="edieresis" horiz-adv-x="476" d="M308 275Q315 306 304 316Q296 321 284 319T263 312Q250 304 232 286Q211 265 192 235T162 172Q184 176 208 186T253 210T288 240T308 275ZM515 79Q522 66 518 50T494 28Q471 20 435 6T356
-22T265 -41T171 -40Q148 -36 130 -27T100 -5Q54 39 69 120Q75 158 88 191T118 251T150 299T181 334T209 359T234 376Q246 382 260 386T290 392T321 392T349 382Q364 373 372 359T383 329T385 294T379 258Q370 225 346 197T288 146T217 110T144 92Q141 67 152 53T185
34Q219 26 259 32T339 51T414 77T473 98Q489 103 499 97T515 79ZM250 520Q250 501 236 487T203 473Q183 473 170 486T156 520Q157 540 169 554T202 569Q222 569 236 555T250 520ZM418 520Q417 500 404 487T371 473Q351 473 338 486T324 520Q324 540 337 554T370
569Q389 569 403 555T418 520Z" />
<glyph unicode="&#xec;" glyph-name="igrave" horiz-adv-x="369" d="M260 366Q254 359 244 356T223 361Q194 383 163 407T103 454Q91 463 92 474T100 493Q106 501 117 504T138 499Q169 474 198 451T256 405Q268 397 267 386T260 366ZM488 66Q489 54 481 42T452
28Q438 26 414 19T362 1T306 -18T256 -33Q193 -48 158 -33T106 41Q101 60 101 85T102 130Q104 156 109 181T122 226Q116 228 116 234Q116 240 118 246Q122 255 130 268T146 290Q156 298 168 299T192 296Q206 291 213 281T214 257Q203 235 192 199T178 130Q177 110
178 94T182 67Q187 47 199 41T239 39Q256 42 283 52T339 73T397 94T446 103Q466 104 476 92T488 66Z" />
<glyph unicode="&#xed;" glyph-name="iacute" horiz-adv-x="369" d="M304 508Q311 497 309 487T295 469Q280 460 260 449T217 426T174 404T138 386Q124 380 114 384T99 399Q94 409 96 419T112 438Q128 446 148 456T190 477T231 498T267 517Q278 525 288 522T304
508ZM488 66Q489 54 481 42T452 28Q438 26 414 19T362 1T306 -18T256 -33Q193 -48 158 -33T106 41Q101 60 101 85T102 130Q104 156 109 181T122 226Q116 228 116 234Q116 240 118 246Q122 255 130 268T146 290Q156 298 168 299T192 296Q206 291 213 281T214 257Q203
235 192 199T178 130Q177 110 178 94T182 67Q187 47 199 41T239 39Q256 42 283 52T339 73T397 94T446 103Q466 104 476 92T488 66Z" />
<glyph unicode="&#xee;" glyph-name="icircumflex" horiz-adv-x="369" d="M300 418Q309 407 308 397T299 379T282 371T262 378Q250 389 237 402T213 425Q210 429 207 429T201 426Q184 415 162 402T120 375Q109 368 98 371T81 385Q75 393 76 403T89 422Q116 438
143 455T192 485Q216 501 236 484Q251 470 269 451T300 418ZM488 66Q489 54 481 42T452 28Q438 26 414 19T362 1T306 -18T256 -33Q193 -48 158 -33T106 41Q101 60 101 85T102 130Q104 156 109 181T122 226Q116 228 116 234Q116 240 118 246Q122 255 130 268T146
290Q156 298 168 299T192 296Q206 291 213 281T214 257Q203 235 192 199T178 130Q177 110 178 94T182 67Q187 47 199 41T239 39Q256 42 283 52T339 73T397 94T446 103Q466 104 476 92T488 66Z" />
<glyph unicode="&#xef;" glyph-name="idieresis" horiz-adv-x="369" d="M488 66Q489 54 481 42T452 28Q438 26 414 19T362 1T306 -18T256 -33Q193 -48 158 -33T106 41Q101 60 101 85T102 130Q104 156 109 181T122 226Q116 228 116 234Q116 240 118 246Q122 255
130 268T146 290Q156 298 168 299T192 296Q206 291 213 281T214 257Q203 235 192 199T178 130Q177 110 178 94T182 67Q187 47 199 41T239 39Q256 42 283 52T339 73T397 94T446 103Q466 104 476 92T488 66ZM148 438Q148 419 134 405T101 391Q81 391 68 404T54 438Q55
458 67 472T100 487Q120 487 134 473T148 438ZM316 438Q315 418 302 405T269 391Q249 391 236 404T222 438Q222 458 235 472T268 487Q287 487 301 473T316 438Z" />
<glyph unicode="&#xf0;" glyph-name="eth" horiz-adv-x="622" d="M493 179Q458 195 416 206T330 221T245 223T170 209Q144 200 135 188T126 162Q126 148 140 125T175 86Q223 49 277 31T374 13Q412 13 436 28T478 68Q489 85 493 114T493 179ZM535 608Q521 574 494
548T435 499Q476 433 508 364T556 228L568 171Q573 132 566 94T542 27Q518 -10 477 -35T378 -61Q317 -61 250 -38T128 29Q93 57 69 93T44 167Q43 250 143 280Q218 302 302 299T467 268Q451 310 427 358T373 456Q345 436 321 416T283 369Q274 354 266 353T246 359Q223
369 232 397Q240 421 248 432T268 452T298 470T345 500Q324 533 302 564T259 621Q250 632 252 647T262 670Q275 681 289 681Q304 681 317 668Q339 640 361 610T405 547Q430 569 461 600Q465 617 471 631T486 653Q500 667 510 669T532 666Q537 663 541 657T546 643T546
626T535 608Z" />
<glyph unicode="&#xf1;" glyph-name="ntilde" horiz-adv-x="682" d="M473 417Q464 382 446 368T406 354Q369 354 330 387Q312 402 297 402Q277 402 257 370Q250 358 239 356T217 360Q209 364 205 373T208 396Q224 429 247 444T294 459Q328 459 362 433Q391 412
402 412Q414 412 420 432Q425 446 436 449T456 450Q466 446 471 437T473 417ZM811 77Q812 66 806 56T787 40Q781 38 775 37T760 37Q740 29 712 19T653 -6Q599 -29 551 -18T477 47Q460 82 455 115T447 171Q444 185 430 187Q421 189 410 185T385 173Q375 166 364
156T339 134T313 110T286 89Q274 80 260 66T232 37T208 8T192 -17Q181 -37 166 -40T136 -37T118 -21T113 1Q113 28 113 56Q113 85 113 111Q113 137 113 160T112 199Q97 203 97 217Q99 226 104 239T117 261Q122 268 131 270T151 272Q163 271 173 265T185 245Q186
231 187 211T188 169Q188 148 188 127Q188 106 187 90Q200 109 220 126T258 160Q279 180 301 200T344 234Q366 251 393 261T445 270Q474 271 495 254T521 202Q526 163 532 133T547 83Q558 59 580 57T624 63Q656 76 694 91T763 114Q786 119 798 108T811 77Z" />
<glyph unicode="&#xf2;" glyph-name="ograve" horiz-adv-x="572" d="M395 372Q389 365 379 362T358 367Q329 389 298 413T238 460Q226 469 227 480T235 499Q241 507 252 510T273 505Q304 480 333 457T391 411Q403 403 402 392T395 372ZM420 92Q439 115 432 140T401
181Q386 181 366 181T327 181Q299 181 283 190T271 215Q266 218 261 216T247 211Q226 197 203 166T174 96Q165 48 180 26Q196 2 233 2Q262 1 285 5T327 18Q353 29 377 49T420 92ZM553 214Q553 206 549 198T537 186Q520 181 492 181Q498 173 503 159T509 127T504
88T479 46Q424 -19 359 -48Q331 -61 300 -66T234 -72Q143 -74 109 -16Q82 31 99 111Q105 141 117 168T148 219T188 260T234 290Q256 301 280 301T324 281Q333 284 344 284T363 283Q380 281 399 273T430 253H513Q531 253 542 241T553 214Z" />
<glyph unicode="&#xf3;" glyph-name="oacute" horiz-adv-x="572" d="M481 496Q488 485 486 475T472 457Q457 448 437 437T394 414T351 392T315 374Q301 368 291 372T276 387Q271 397 273 407T289 426Q305 434 325 444T367 465T408 486T444 505Q455 513 465 510T481
496ZM420 92Q439 115 432 140T401 181Q386 181 366 181T327 181Q299 181 283 190T271 215Q266 218 261 216T247 211Q226 197 203 166T174 96Q165 48 180 26Q196 2 233 2Q262 1 285 5T327 18Q353 29 377 49T420 92ZM553 214Q553 206 549 198T537 186Q520 181 492
181Q498 173 503 159T509 127T504 88T479 46Q424 -19 359 -48Q331 -61 300 -66T234 -72Q143 -74 109 -16Q82 31 99 111Q105 141 117 168T148 219T188 260T234 290Q256 301 280 301T324 281Q333 284 344 284T363 283Q380 281 399 273T430 253H513Q531 253 542 241T553
214Z" />
<glyph unicode="&#xf4;" glyph-name="ocircumflex" horiz-adv-x="572" d="M444 412Q453 401 452 391T443 373T426 365T406 372Q394 383 381 396T357 419Q354 423 351 423T345 420Q328 409 306 396T264 369Q253 362 242 365T225 379Q219 387 220 397T233 416Q260
432 287 449T336 479Q360 495 380 478Q395 464 413 445T444 412ZM420 92Q439 115 432 140T401 181Q386 181 366 181T327 181Q299 181 283 190T271 215Q266 218 261 216T247 211Q226 197 203 166T174 96Q165 48 180 26Q196 2 233 2Q262 1 285 5T327 18Q353 29 377
49T420 92ZM553 214Q553 206 549 198T537 186Q520 181 492 181Q498 173 503 159T509 127T504 88T479 46Q424 -19 359 -48Q331 -61 300 -66T234 -72Q143 -74 109 -16Q82 31 99 111Q105 141 117 168T148 219T188 260T234 290Q256 301 280 301T324 281Q333 284 344
284T363 283Q380 281 399 273T430 253H513Q531 253 542 241T553 214Z" />
<glyph unicode="&#xf5;" glyph-name="otilde" horiz-adv-x="572" d="M470 438Q461 403 443 389T403 375Q366 375 327 408Q309 423 294 423Q274 423 254 391Q247 379 236 377T214 381Q206 385 202 394T205 417Q221 450 244 465T291 480Q325 480 359 454Q388 433
399 433Q411 433 417 453Q422 467 433 470T453 471Q463 467 468 458T470 438ZM420 92Q439 115 432 140T401 181Q386 181 366 181T327 181Q299 181 283 190T271 215Q266 218 261 216T247 211Q226 197 203 166T174 96Q165 48 180 26Q196 2 233 2Q262 1 285 5T327
18Q353 29 377 49T420 92ZM553 214Q553 206 549 198T537 186Q520 181 492 181Q498 173 503 159T509 127T504 88T479 46Q424 -19 359 -48Q331 -61 300 -66T234 -72Q143 -74 109 -16Q82 31 99 111Q105 141 117 168T148 219T188 260T234 290Q256 301 280 301T324 281Q333
284 344 284T363 283Q380 281 399 273T430 253H513Q531 253 542 241T553 214Z" />
<glyph unicode="&#xf6;" glyph-name="odieresis" horiz-adv-x="572" d="M420 92Q439 115 432 140T401 181Q386 181 366 181T327 181Q299 181 283 190T271 215Q266 218 261 216T247 211Q226 197 203 166T174 96Q165 48 180 26Q196 2 233 2Q262 1 285 5T327 18Q353
29 377 49T420 92ZM553 214Q553 206 549 198T537 186Q520 181 492 181Q498 173 503 159T509 127T504 88T479 46Q424 -19 359 -48Q331 -61 300 -66T234 -72Q143 -74 109 -16Q82 31 99 111Q105 141 117 168T148 219T188 260T234 290Q256 301 280 301T324 281Q333
284 344 284T363 283Q380 281 399 273T430 253H513Q531 253 542 241T553 214ZM306 422Q306 403 292 389T259 375Q239 375 226 388T212 422Q213 442 225 456T258 471Q278 471 292 457T306 422ZM474 422Q473 402 460 389T427 375Q407 375 394 388T380 422Q380 442
393 456T426 471Q445 471 459 457T474 422Z" />
<glyph unicode="&#xf7;" glyph-name="divide" horiz-adv-x="398" d="M230 102Q213 91 194 92T160 108Q145 124 146 147T167 185Q180 196 198 196Q216 196 230 185Q240 177 245 166T251 143Q251 131 246 120T230 102ZM235 446Q245 438 250 427T255 403Q255 391
250 380T234 362Q217 351 198 352T164 368Q150 384 150 408T171 446Q185 456 203 456Q222 456 235 446ZM355 266Q356 256 349 247T327 236Q306 234 273 234Q240 234 207 235T147 236T109 235Q104 235 98 231T87 223Q79 218 70 219T54 226Q40 236 43 256Q46 270
56 280T81 293Q97 297 130 297T200 295T271 292T325 293Q339 295 347 286T355 266Z" />
<glyph unicode="&#xf8;" glyph-name="oslash" horiz-adv-x="572" d="M172 26Q172 25 174 23Q200 59 231 98T296 183Q278 186 268 194T263 215Q258 218 253 216T239 211Q218 197 195 166T166 96Q157 48 172 26ZM412 92Q431 115 424 140T393 181Q388 181 383 181T372
180Q340 135 305 90T237 2Q262 2 282 6T319 18Q345 29 369 49T412 92ZM478 368Q475 346 461 317T423 253H505Q523 253 534 241T545 214Q545 206 541 198T529 186Q512 181 484 181Q490 173 495 159T501 127T496 88T471 46Q416 -19 351 -48Q323 -61 292 -66T226 -72Q205
-72 187 -69Q171 -93 160 -113T145 -149Q140 -166 132 -168T111 -167Q86 -162 89 -133Q91 -115 100 -93T126 -44Q118 -38 112 -31T101 -16Q74 31 91 111Q97 141 109 168T140 219T180 260T226 290Q248 301 272 301T316 281Q325 284 336 284T355 283L367 280Q378
296 387 311T408 343Q408 360 410 374T420 400Q430 417 439 421T462 423Q473 421 477 406T478 368Z" />
<glyph unicode="&#xf9;" glyph-name="ugrave" horiz-adv-x="680" d="M404 330Q398 323 388 320T367 325Q338 347 307 371T247 418Q235 427 236 438T244 457Q250 465 261 468T282 463Q313 438 342 415T400 369Q412 361 411 350T404 330ZM730 77Q736 65 734 51T715
26Q692 12 658 0T586 -19Q552 -24 517 -14T464 24Q456 38 452 53T445 92Q425 66 396 38T341 -8Q300 -35 261 -43T188 -44Q159 -37 139 -18T107 31Q98 58 97 92T98 160T107 223T120 269Q126 285 138 292T163 299Q178 299 189 288T194 256Q187 234 182 207T174 154T172
103T178 63Q185 38 210 30Q227 25 250 30T298 52Q357 94 395 146T450 246Q456 260 469 264T496 267Q510 263 519 253T524 227Q513 183 512 147T520 86Q528 66 543 60T577 56Q606 59 633 69T681 91Q698 101 711 96T730 77Z" />
<glyph unicode="&#xfa;" glyph-name="uacute" horiz-adv-x="680" d="M457 484Q464 473 462 463T448 445Q433 436 413 425T370 402T327 380T291 362Q277 356 267 360T252 375Q247 385 249 395T265 414Q281 422 301 432T343 453T384 474T420 493Q431 501 441 498T457
484ZM730 77Q736 65 734 51T715 26Q692 12 658 0T586 -19Q552 -24 517 -14T464 24Q456 38 452 53T445 92Q425 66 396 38T341 -8Q300 -35 261 -43T188 -44Q159 -37 139 -18T107 31Q98 58 97 92T98 160T107 223T120 269Q126 285 138 292T163 299Q178 299 189 288T194
256Q187 234 182 207T174 154T172 103T178 63Q185 38 210 30Q227 25 250 30T298 52Q357 94 395 146T450 246Q456 260 469 264T496 267Q510 263 519 253T524 227Q513 183 512 147T520 86Q528 66 543 60T577 56Q606 59 633 69T681 91Q698 101 711 96T730 77Z" />
<glyph unicode="&#xfb;" glyph-name="ucircumflex" horiz-adv-x="680" d="M459 403Q468 392 467 382T458 364T441 356T421 363Q409 374 396 387T372 410Q369 414 366 414T360 411Q343 400 321 387T279 360Q268 353 257 356T240 370Q234 378 235 388T248 407Q275
423 302 440T351 470Q375 486 395 469Q410 455 428 436T459 403ZM730 77Q736 65 734 51T715 26Q692 12 658 0T586 -19Q552 -24 517 -14T464 24Q456 38 452 53T445 92Q425 66 396 38T341 -8Q300 -35 261 -43T188 -44Q159 -37 139 -18T107 31Q98 58 97 92T98 160T107
223T120 269Q126 285 138 292T163 299Q178 299 189 288T194 256Q187 234 182 207T174 154T172 103T178 63Q185 38 210 30Q227 25 250 30T298 52Q357 94 395 146T450 246Q456 260 469 264T496 267Q510 263 519 253T524 227Q513 183 512 147T520 86Q528 66 543 60T577
56Q606 59 633 69T681 91Q698 101 711 96T730 77Z" />
<glyph unicode="&#xfc;" glyph-name="udieresis" horiz-adv-x="680" d="M730 77Q736 65 734 51T715 26Q692 12 658 0T586 -19Q552 -24 517 -14T464 24Q456 38 452 53T445 92Q425 66 396 38T341 -8Q300 -35 261 -43T188 -44Q159 -37 139 -18T107 31Q98 58 97 92T98
160T107 223T120 269Q126 285 138 292T163 299Q178 299 189 288T194 256Q187 234 182 207T174 154T172 103T178 63Q185 38 210 30Q227 25 250 30T298 52Q357 94 395 146T450 246Q456 260 469 264T496 267Q510 263 519 253T524 227Q513 183 512 147T520 86Q528 66
543 60T577 56Q606 59 633 69T681 91Q698 101 711 96T730 77ZM306 408Q306 389 292 375T259 361Q239 361 226 374T212 408Q213 428 225 442T258 457Q278 457 292 443T306 408ZM474 408Q473 388 460 375T427 361Q407 361 394 374T380 408Q380 428 393 442T426 457Q445
457 459 443T474 408Z" />
<glyph unicode="&#xfd;" glyph-name="yacute" horiz-adv-x="647" d="M478 510Q485 499 483 489T469 471Q454 462 434 451T391 428T348 406T312 388Q298 382 288 386T273 401Q268 411 270 421T286 440Q302 448 322 458T364 479T405 500T441 519Q452 527 462 524T478
510ZM571 251Q573 228 573 191Q573 154 570 109T563 12T551 -93T536 -198T518 -296Q514 -316 500 -324T472 -329Q457 -327 448 -315T443 -281Q455 -234 464 -176T479 -58T488 59T493 163Q494 172 491 176T483 181T471 179T460 171Q444 156 420 135T369 92T315 48T264
12Q222 -14 184 -20T111 0Q99 11 88 30T75 81Q75 105 82 132T102 186T127 234T152 269Q163 283 178 285T204 282Q220 274 224 259T213 224Q204 213 194 196T175 161T161 125T155 93Q155 82 159 76T167 65Q176 56 190 59T225 75Q255 94 287 119T353 173T417 231T476
286Q488 299 505 302T537 300Q550 295 559 283T571 251Z" />
<glyph unicode="&#xfe;" glyph-name="thorn" horiz-adv-x="541" d="M182 -53L206 -223Q208 -230 214 -241T221 -265Q223 -281 213 -289T188 -298Q163 -300 149 -280Q141 -269 138 -257T131 -228Q123 -189 115 -130T100 -6T92 122T96 232Q96 279 100 331T109 432T122
526T135 600Q138 616 141 628T153 652Q167 672 192 670Q207 670 217 662T225 637Q224 625 218 614T210 595Q205 566 200 530T189 452T179 366T173 279Q183 291 199 302T231 322Q259 336 298 349T376 368Q416 374 443 366T487 340Q508 316 506 276T479 190Q467 165
449 138T408 87Q373 49 331 20T244 -38Q229 -48 215 -44T193 -27Q186 -15 189 0T204 24Q251 54 289 80T355 140Q373 160 388 183T412 225Q421 244 424 257T419 282Q414 289 404 291T375 292Q349 289 313 277T243 245Q226 235 210 221T186 190Q184 185 180 179T174
166Q172 152 172 132T172 88T175 40T178 -4T181 -37T182 -53Z" />
<glyph unicode="&#xff;" glyph-name="ydieresis" horiz-adv-x="647" d="M571 251Q573 228 573 191Q573 154 570 109T563 12T551 -93T536 -198T518 -296Q514 -316 500 -324T472 -329Q457 -327 448 -315T443 -281Q455 -234 464 -176T479 -58T488 59T493 163Q494
172 491 176T483 181T471 179T460 171Q444 156 420 135T369 92T315 48T264 12Q222 -14 184 -20T111 0Q99 11 88 30T75 81Q75 105 82 132T102 186T127 234T152 269Q163 283 178 285T204 282Q220 274 224 259T213 224Q204 213 194 196T175 161T161 125T155 93Q155
82 159 76T167 65Q176 56 190 59T225 75Q255 94 287 119T353 173T417 231T476 286Q488 299 505 302T537 300Q550 295 559 283T571 251ZM320 412Q320 393 306 379T273 365Q253 365 240 378T226 412Q227 432 239 446T272 461Q292 461 306 447T320 412ZM488 412Q487
392 474 379T441 365Q421 365 408 378T394 412Q394 432 407 446T440 461Q459 461 473 447T488 412Z" />
</font>
</defs>
</svg>
